<svg xmlns="http://www.w3.org/2000/svg" xmlns:xlink="http://www.w3.org/1999/xlink" width="500" zoomAndPan="magnify" viewBox="0 0 375 374.999991" height="500" preserveAspectRatio="xMidYMid meet" version="1.0"><defs><g/><clipPath id="a70d03a1b2"><rect x="0" width="326" y="0" height="77"/></clipPath><clipPath id="cef98f16da"><path d="M 76 146 L 106 146 L 106 175 L 76 175 Z M 76 146 " clip-rule="nonzero"/></clipPath><clipPath id="fbf2c7fc4c"><path d="M 81.289062 139.832031 L 113.957031 156.664062 L 101.25 181.332031 L 68.582031 164.5 Z M 81.289062 139.832031 " clip-rule="nonzero"/></clipPath><clipPath id="b671c7b660"><path d="M 81.289062 139.832031 L 113.957031 156.664062 L 101.25 181.332031 L 68.582031 164.5 Z M 81.289062 139.832031 " clip-rule="nonzero"/></clipPath><clipPath id="da83b55827"><path d="M 81.289062 139.832031 L 113.957031 156.664062 L 101.25 181.332031 L 68.582031 164.5 Z M 81.289062 139.832031 " clip-rule="nonzero"/></clipPath></defs><path fill="#ffbd59" d="M 324.558594 191.792969 C 324.558594 190.828125 324.511719 189.863281 324.414062 188.902344 C 324.320312 187.9375 324.179688 186.984375 323.988281 186.035156 C 323.800781 185.089844 323.566406 184.152344 323.285156 183.226562 C 323.003906 182.300781 322.679688 181.390625 322.308594 180.5 C 321.941406 179.605469 321.527344 178.734375 321.070312 177.878906 C 320.617188 177.027344 320.121094 176.199219 319.582031 175.394531 C 319.046875 174.59375 318.46875 173.816406 317.855469 173.070312 C 317.242188 172.320312 316.59375 171.605469 315.910156 170.921875 C 315.226562 170.238281 314.511719 169.589844 313.765625 168.976562 C 313.019531 168.363281 312.242188 167.789062 311.4375 167.253906 C 310.636719 166.714844 309.808594 166.21875 308.953125 165.761719 C 308.101562 165.308594 307.230469 164.894531 306.335938 164.523438 C 305.441406 164.15625 304.535156 163.828125 303.609375 163.546875 C 302.683594 163.269531 301.746094 163.035156 300.800781 162.84375 C 299.851562 162.65625 298.894531 162.515625 297.933594 162.417969 C 296.972656 162.324219 296.007812 162.277344 295.039062 162.277344 C 294.074219 162.277344 293.109375 162.324219 292.148438 162.417969 C 291.183594 162.515625 290.230469 162.65625 289.28125 162.84375 C 288.332031 163.035156 287.398438 163.269531 286.472656 163.546875 C 285.546875 163.828125 284.636719 164.15625 283.746094 164.523438 C 282.851562 164.894531 281.980469 165.308594 281.125 165.761719 C 280.273438 166.21875 279.445312 166.714844 278.640625 167.253906 C 277.839844 167.789062 277.0625 168.363281 276.316406 168.976562 C 275.566406 169.589844 274.851562 170.238281 274.167969 170.921875 C 273.484375 171.605469 272.835938 172.320312 272.222656 173.070312 C 271.609375 173.816406 271.035156 174.59375 270.496094 175.394531 C 269.960938 176.199219 269.464844 177.027344 269.007812 177.878906 C 268.554688 178.734375 268.140625 179.605469 267.769531 180.5 C 267.402344 181.390625 267.074219 182.300781 266.792969 183.226562 C 266.515625 184.152344 266.28125 185.089844 266.089844 186.035156 C 265.902344 186.984375 265.761719 187.9375 265.664062 188.902344 C 265.570312 189.863281 265.523438 190.828125 265.523438 191.792969 C 265.523438 192.761719 265.570312 193.726562 265.664062 194.6875 C 265.761719 195.648438 265.902344 196.605469 266.089844 197.554688 C 266.28125 198.5 266.515625 199.4375 266.792969 200.363281 C 267.074219 201.289062 267.402344 202.195312 267.769531 203.089844 C 268.140625 203.984375 268.554688 204.855469 269.007812 205.707031 C 269.464844 206.5625 269.960938 207.390625 270.496094 208.191406 C 271.035156 208.996094 271.609375 209.773438 272.222656 210.519531 C 272.835938 211.265625 273.484375 211.984375 274.167969 212.667969 C 274.851562 213.351562 275.566406 214 276.316406 214.613281 C 277.0625 215.226562 277.839844 215.800781 278.640625 216.335938 C 279.445312 216.875 280.273438 217.371094 281.125 217.824219 C 281.980469 218.28125 282.851562 218.695312 283.746094 219.066406 C 284.636719 219.433594 285.546875 219.761719 286.472656 220.039062 C 287.398438 220.320312 288.332031 220.554688 289.28125 220.746094 C 290.230469 220.933594 291.183594 221.074219 292.148438 221.167969 C 293.109375 221.265625 294.074219 221.3125 295.039062 221.3125 C 296.007812 221.3125 296.972656 221.265625 297.933594 221.167969 C 298.894531 221.074219 299.851562 220.933594 300.800781 220.746094 C 301.746094 220.554688 302.683594 220.320312 303.609375 220.039062 C 304.535156 219.761719 305.441406 219.433594 306.335938 219.066406 C 307.230469 218.695312 308.101562 218.28125 308.953125 217.824219 C 309.808594 217.371094 310.636719 216.875 311.4375 216.335938 C 312.242188 215.800781 313.019531 215.226562 313.765625 214.613281 C 314.511719 214 315.226562 213.351562 315.910156 212.667969 C 316.59375 211.984375 317.242188 211.265625 317.855469 210.519531 C 318.46875 209.773438 319.046875 208.996094 319.582031 208.191406 C 320.121094 207.390625 320.617188 206.5625 321.070312 205.707031 C 321.527344 204.855469 321.941406 203.984375 322.308594 203.089844 C 322.679688 202.195312 323.003906 201.289062 323.285156 200.363281 C 323.566406 199.4375 323.800781 198.5 323.988281 197.554688 C 324.179688 196.605469 324.320312 195.648438 324.414062 194.6875 C 324.511719 193.726562 324.558594 192.761719 324.558594 191.792969 Z M 324.558594 191.792969 " fill-opacity="1" fill-rule="nonzero"/><path fill="#ff751f" d="M 314.796875 172.039062 C 314.148438 171.394531 313.472656 170.777344 312.765625 170.199219 C 312.054688 169.617188 311.324219 169.074219 310.5625 168.566406 C 309.800781 168.058594 309.015625 167.585938 308.210938 167.15625 C 307.402344 166.722656 306.578125 166.332031 305.730469 165.984375 C 304.886719 165.632812 304.027344 165.324219 303.148438 165.058594 C 302.273438 164.792969 301.386719 164.574219 300.492188 164.394531 C 299.59375 164.214844 298.6875 164.082031 297.777344 163.992188 C 296.867188 163.902344 295.957031 163.855469 295.039062 163.855469 C 294.125 163.855469 293.210938 163.902344 292.300781 163.992188 C 291.390625 164.082031 290.488281 164.214844 289.589844 164.394531 C 288.691406 164.574219 287.804688 164.792969 286.929688 165.058594 C 286.054688 165.324219 285.195312 165.632812 284.347656 165.984375 C 283.503906 166.332031 282.675781 166.722656 281.871094 167.15625 C 281.0625 167.585938 280.28125 168.058594 279.519531 168.566406 C 278.757812 169.074219 278.023438 169.617188 277.316406 170.199219 C 276.609375 170.777344 275.933594 171.394531 275.285156 172.039062 C 274.636719 172.6875 274.023438 173.363281 273.445312 174.070312 C 272.863281 174.777344 272.320312 175.511719 271.8125 176.273438 C 271.300781 177.035156 270.832031 177.816406 270.402344 178.625 C 269.96875 179.433594 269.578125 180.257812 269.230469 181.101562 C 268.878906 181.949219 268.570312 182.808594 268.304688 183.683594 C 268.039062 184.558594 267.816406 185.445312 267.640625 186.34375 C 267.460938 187.242188 267.328125 188.144531 267.238281 189.054688 C 267.148438 189.96875 267.101562 190.878906 267.101562 191.792969 C 267.101562 192.710938 267.148438 193.621094 267.238281 194.53125 C 267.328125 195.445312 267.460938 196.347656 267.640625 197.246094 C 267.816406 198.140625 268.039062 199.027344 268.304688 199.90625 C 268.570312 200.78125 268.878906 201.640625 269.230469 202.484375 C 269.578125 203.332031 269.96875 204.15625 270.402344 204.964844 C 270.832031 205.769531 271.300781 206.554688 271.8125 207.316406 C 272.320312 208.078125 272.863281 208.8125 273.445312 209.519531 C 274.023438 210.226562 274.636719 210.902344 275.285156 211.550781 C 275.933594 212.195312 276.609375 212.808594 277.316406 213.390625 C 278.023438 213.972656 278.757812 214.515625 279.519531 215.023438 C 280.28125 215.53125 281.0625 216.003906 281.871094 216.433594 C 282.675781 216.863281 283.503906 217.253906 284.347656 217.605469 C 285.195312 217.957031 286.054688 218.265625 286.929688 218.53125 C 287.804688 218.796875 288.691406 219.015625 289.589844 219.195312 C 290.488281 219.375 291.390625 219.507812 292.300781 219.597656 C 293.210938 219.6875 294.125 219.730469 295.039062 219.730469 C 295.957031 219.730469 296.867188 219.6875 297.777344 219.597656 C 298.6875 219.507812 299.59375 219.375 300.492188 219.195312 C 301.386719 219.015625 302.273438 218.796875 303.148438 218.53125 C 304.027344 218.265625 304.886719 217.957031 305.730469 217.605469 C 306.578125 217.253906 307.402344 216.863281 308.210938 216.433594 C 309.015625 216.003906 309.800781 215.53125 310.5625 215.023438 C 311.324219 214.515625 312.054688 213.972656 312.765625 213.390625 C 313.472656 212.808594 314.148438 212.195312 314.796875 211.550781 C 315.441406 210.902344 316.054688 210.226562 316.636719 209.519531 C 317.21875 208.8125 317.761719 208.078125 318.269531 207.316406 C 318.777344 206.554688 319.246094 205.769531 319.679688 204.964844 C 320.109375 204.15625 320.5 203.332031 320.851562 202.484375 C 321.203125 201.640625 321.507812 200.78125 321.773438 199.90625 C 322.039062 199.027344 322.261719 198.140625 322.441406 197.246094 C 322.621094 196.347656 322.753906 195.445312 322.84375 194.53125 C 322.933594 193.621094 322.976562 192.710938 322.976562 191.792969 C 322.976562 190.878906 322.933594 189.96875 322.84375 189.054688 C 322.753906 188.144531 322.621094 187.242188 322.441406 186.34375 C 322.261719 185.445312 322.039062 184.558594 321.773438 183.683594 C 321.507812 182.808594 321.203125 181.949219 320.851562 181.101562 C 320.5 180.257812 320.109375 179.433594 319.679688 178.625 C 319.246094 177.816406 318.777344 177.035156 318.269531 176.273438 C 317.761719 175.511719 317.21875 174.777344 316.636719 174.070312 C 316.054688 173.363281 315.441406 172.6875 314.796875 172.039062 Z M 314.796875 172.039062 " fill-opacity="1" fill-rule="nonzero"/><path fill="#ffbd59" d="M 295.039062 221.3125 C 278.75 221.3125 265.523438 208.085938 265.523438 191.792969 C 265.523438 175.503906 278.75 162.277344 295.039062 162.277344 C 311.332031 162.277344 324.558594 175.503906 324.558594 191.792969 C 324.558594 208.085938 311.332031 221.3125 295.039062 221.3125 Z M 314.796875 211.550781 C 325.699219 200.644531 325.699219 182.941406 314.796875 172.039062 C 303.890625 161.136719 286.1875 161.136719 275.285156 172.039062 C 264.382812 182.941406 264.382812 200.644531 275.285156 211.550781 C 286.1875 222.453125 303.890625 222.453125 314.796875 211.550781 Z M 295.039062 168.734375 C 307.769531 168.734375 318.101562 179.066406 318.101562 191.792969 C 318.101562 204.523438 307.769531 214.855469 295.039062 214.855469 C 282.3125 214.855469 271.980469 204.523438 271.980469 191.792969 C 271.980469 179.066406 282.3125 168.734375 295.039062 168.734375 Z M 295.039062 169.617188 C 282.800781 169.617188 272.863281 179.554688 272.863281 191.792969 C 272.863281 204.035156 282.800781 213.972656 295.039062 213.972656 C 307.28125 213.972656 317.21875 204.035156 317.21875 191.792969 C 317.21875 179.554688 307.28125 169.617188 295.039062 169.617188 Z M 295.039062 174.476562 C 304.597656 174.476562 312.355469 182.238281 312.355469 191.792969 C 312.355469 201.351562 304.597656 209.109375 295.039062 209.109375 C 285.484375 209.109375 277.722656 201.351562 277.722656 191.792969 C 277.722656 182.238281 285.484375 174.476562 295.039062 174.476562 Z M 295.039062 175.363281 C 285.972656 175.363281 278.609375 182.726562 278.609375 191.792969 C 278.609375 200.863281 285.972656 208.226562 295.039062 208.226562 C 304.109375 208.226562 311.472656 200.863281 311.472656 191.792969 C 311.472656 182.726562 304.109375 175.363281 295.039062 175.363281 Z M 295.039062 181.273438 C 300.847656 181.273438 305.5625 185.988281 305.5625 191.792969 C 305.5625 197.601562 300.847656 202.316406 295.039062 202.316406 C 289.234375 202.316406 284.519531 197.601562 284.519531 191.792969 C 284.519531 185.988281 289.234375 181.273438 295.039062 181.273438 Z M 295.039062 182.160156 C 289.722656 182.160156 285.40625 186.476562 285.40625 191.792969 C 285.40625 197.113281 289.722656 201.429688 295.039062 201.429688 C 300.359375 201.429688 304.675781 197.113281 304.675781 191.792969 C 304.675781 186.476562 300.359375 182.160156 295.039062 182.160156 Z M 295.039062 187.136719 C 297.609375 187.136719 299.699219 189.222656 299.699219 191.792969 C 299.699219 194.367188 297.609375 196.453125 295.039062 196.453125 C 292.46875 196.453125 290.382812 194.367188 290.382812 191.792969 C 290.382812 189.222656 292.46875 187.136719 295.039062 187.136719 Z M 295.039062 188.023438 C 292.957031 188.023438 291.269531 189.710938 291.269531 191.792969 C 291.269531 193.875 292.957031 195.566406 295.039062 195.566406 C 297.121094 195.566406 298.8125 193.875 298.8125 191.792969 C 298.8125 189.710938 297.121094 188.023438 295.039062 188.023438 Z M 295.039062 188.023438 " fill-opacity="1" fill-rule="evenodd"/><path fill="#cc3333" d="M 299.835938 169.234375 C 311.132812 171.082031 319.765625 180.902344 319.765625 192.71875 C 319.765625 205.855469 309.101562 216.519531 295.964844 216.519531 C 284.148438 216.519531 274.328125 207.886719 272.476562 196.589844 C 274.6875 207.019531 283.957031 214.855469 295.039062 214.855469 C 307.769531 214.855469 318.101562 204.523438 318.101562 191.792969 C 318.101562 180.710938 310.265625 171.441406 299.835938 169.234375 Z M 298.769531 174.882812 C 307.402344 176.230469 314.019531 183.707031 314.019531 192.71875 C 314.019531 202.683594 305.929688 210.773438 295.964844 210.773438 C 286.953125 210.773438 279.476562 204.15625 278.125 195.523438 C 279.835938 203.292969 286.761719 209.109375 295.039062 209.109375 C 304.597656 209.109375 312.355469 201.351562 312.355469 191.792969 C 312.355469 183.515625 306.535156 176.589844 298.769531 174.882812 Z M 297.507812 181.566406 C 302.992188 182.316406 307.222656 187.027344 307.222656 192.71875 C 307.222656 198.933594 302.179688 203.976562 295.964844 203.976562 C 290.273438 203.976562 285.5625 199.746094 284.8125 194.261719 C 285.921875 198.878906 290.082031 202.316406 295.039062 202.316406 C 300.847656 202.316406 305.5625 197.601562 305.5625 191.792969 C 305.5625 186.835938 302.125 182.675781 297.507812 181.566406 Z M 296.40625 187.339844 C 299.179688 187.566406 301.359375 189.890625 301.359375 192.71875 C 301.359375 195.695312 298.941406 198.113281 295.964844 198.113281 C 293.136719 198.113281 290.8125 195.933594 290.585938 193.160156 C 291.171875 195.066406 292.945312 196.453125 295.039062 196.453125 C 297.609375 196.453125 299.699219 194.367188 299.699219 191.792969 C 299.699219 189.699219 298.3125 187.925781 296.40625 187.339844 Z M 296.40625 187.339844 " fill-opacity="1" fill-rule="evenodd"/><path fill="#f35151" d="M 307.015625 173.746094 C 303.769531 171.851562 299.992188 170.765625 295.964844 170.765625 C 283.847656 170.765625 274.007812 180.601562 274.007812 192.71875 C 274.007812 196.746094 275.097656 200.523438 276.992188 203.769531 C 274.710938 200.335938 273.378906 196.21875 273.378906 191.792969 C 273.378906 179.839844 283.085938 170.136719 295.039062 170.136719 C 299.464844 170.136719 303.582031 171.464844 307.015625 173.746094 Z M 303.976562 178.628906 C 301.613281 177.28125 298.878906 176.507812 295.964844 176.507812 C 287.019531 176.507812 279.753906 183.773438 279.753906 192.71875 C 279.753906 195.632812 280.523438 198.367188 281.875 200.730469 C 280.140625 198.183594 279.125 195.105469 279.125 191.792969 C 279.125 183.011719 286.257812 175.878906 295.039062 175.878906 C 298.351562 175.878906 301.429688 176.894531 303.976562 178.628906 Z M 300.382812 184.40625 C 299.0625 183.703125 297.558594 183.304688 295.964844 183.304688 C 290.769531 183.304688 286.550781 187.523438 286.550781 192.71875 C 286.550781 194.316406 286.949219 195.816406 287.652344 197.136719 C 286.5625 195.632812 285.921875 193.789062 285.921875 191.792969 C 285.921875 186.761719 290.007812 182.675781 295.039062 182.675781 C 297.035156 182.675781 298.878906 183.316406 300.382812 184.40625 Z M 297.257812 189.410156 C 296.855469 189.253906 296.421875 189.167969 295.964844 189.167969 C 294.003906 189.167969 292.414062 190.757812 292.414062 192.71875 C 292.414062 193.175781 292.5 193.609375 292.65625 194.011719 C 292.117188 193.429688 291.785156 192.652344 291.785156 191.792969 C 291.785156 189.996094 293.242188 188.539062 295.039062 188.539062 C 295.894531 188.539062 296.675781 188.871094 297.257812 189.410156 Z M 275.855469 172.902344 C 279.148438 169.613281 282.175781 167.988281 283.527344 167.589844 C 285.800781 166.921875 280.90625 168.761719 276.574219 173.332031 C 271.414062 178.777344 269.761719 182.933594 270.835938 179.988281 C 271.300781 178.714844 274.019531 174.738281 275.855469 172.902344 Z M 275.855469 172.902344 " fill-opacity="1" fill-rule="evenodd"/><g transform="matrix(1, 0, 0, 1, 29, 154)"><g clip-path="url(#a70d03a1b2)"><g fill="#ff751f" fill-opacity="1"><g transform="translate(0.0723865, 62.676564)"><g><path d="M 6.421875 0.078125 C 7.515625 -5.160156 8.5625 -10.320312 9.5625 -15.40625 C 9.988281 -17.550781 10.414062 -19.785156 10.84375 -22.109375 C 11.269531 -24.441406 11.6875 -26.738281 12.09375 -29 C 12.5 -31.257812 12.851562 -33.445312 13.15625 -35.5625 C 13.46875 -37.675781 13.742188 -39.613281 13.984375 -41.375 C 12.890625 -41.519531 11.78125 -41.566406 10.65625 -41.515625 C 9.539062 -41.472656 8.4375 -41.617188 7.34375 -41.953125 C 7.394531 -42.710938 7.421875 -43.59375 7.421875 -44.59375 C 7.421875 -45.59375 7.441406 -46.59375 7.484375 -47.59375 C 7.535156 -48.6875 7.585938 -49.847656 7.640625 -51.078125 C 8.867188 -50.984375 10.101562 -50.910156 11.34375 -50.859375 C 12.582031 -50.816406 13.816406 -50.796875 15.046875 -50.796875 C 17.472656 -50.796875 19.816406 -50.851562 22.078125 -50.96875 C 24.335938 -51.09375 26.429688 -51.238281 28.359375 -51.40625 C 30.285156 -51.570312 32.175781 -51.773438 34.03125 -52.015625 L 33.25 -48.15625 C 33.007812 -47.0625 32.78125 -45.941406 32.5625 -44.796875 C 32.351562 -43.660156 32.15625 -42.6875 31.96875 -41.875 C 30.914062 -41.59375 29.851562 -41.390625 28.78125 -41.265625 C 27.71875 -41.148438 26.660156 -41 25.609375 -40.8125 C 25.273438 -39.195312 24.914062 -37.398438 24.53125 -35.421875 C 24.15625 -33.453125 23.789062 -31.40625 23.4375 -29.28125 C 23.082031 -27.164062 22.738281 -25.015625 22.40625 -22.828125 C 22.070312 -20.640625 21.738281 -18.546875 21.40625 -16.546875 C 20.644531 -11.835938 19.929688 -6.960938 19.265625 -1.921875 Z M 6.421875 0.078125 "/></g></g></g><g fill="#ff751f" fill-opacity="1"><g transform="translate(25.898514, 62.676564)"><g><path d="M 39.953125 -38.59375 C 39.953125 -34.695312 39.535156 -31.023438 38.703125 -27.578125 C 37.867188 -24.128906 36.757812 -20.960938 35.375 -18.078125 C 34 -15.203125 32.394531 -12.632812 30.5625 -10.375 C 28.738281 -8.113281 26.828125 -6.1875 24.828125 -4.59375 C 22.828125 -3.007812 20.804688 -1.800781 18.765625 -0.96875 C 16.722656 -0.132812 14.769531 0.28125 12.90625 0.28125 C 11.34375 0.28125 9.914062 -0.015625 8.625 -0.609375 C 7.34375 -1.203125 6.226562 -2.082031 5.28125 -3.25 C 4.332031 -4.414062 3.582031 -5.910156 3.03125 -7.734375 C 2.488281 -9.566406 2.21875 -11.769531 2.21875 -14.34375 C 2.21875 -17 2.546875 -19.800781 3.203125 -22.75 C 3.867188 -25.707031 4.773438 -28.632812 5.921875 -31.53125 C 7.066406 -34.4375 8.46875 -37.195312 10.125 -39.8125 C 11.789062 -42.425781 13.625 -44.742188 15.625 -46.765625 C 17.625 -48.785156 19.765625 -50.390625 22.046875 -51.578125 C 24.328125 -52.765625 26.703125 -53.359375 29.171875 -53.359375 C 31.316406 -53.359375 33.085938 -52.914062 34.484375 -52.03125 C 35.890625 -51.15625 36.984375 -50.015625 37.765625 -48.609375 C 38.554688 -47.210938 39.117188 -45.632812 39.453125 -43.875 C 39.785156 -42.113281 39.953125 -40.351562 39.953125 -38.59375 Z M 12.84375 -16.1875 C 12.84375 -15.664062 12.9375 -15.117188 13.125 -14.546875 C 13.3125 -13.984375 13.570312 -13.484375 13.90625 -13.046875 C 14.238281 -12.617188 14.65625 -12.25 15.15625 -11.9375 C 15.65625 -11.632812 16.191406 -11.484375 16.765625 -11.484375 C 18.898438 -11.484375 20.800781 -12.21875 22.46875 -13.6875 C 24.132812 -15.164062 25.515625 -16.972656 26.609375 -19.109375 C 27.703125 -21.253906 28.546875 -23.539062 29.140625 -25.96875 C 29.734375 -28.394531 30.03125 -30.609375 30.03125 -32.609375 C 30.03125 -33.171875 29.992188 -33.785156 29.921875 -34.453125 C 29.859375 -35.117188 29.71875 -35.738281 29.5 -36.3125 C 29.28125 -36.882812 28.945312 -37.375 28.5 -37.78125 C 28.050781 -38.1875 27.445312 -38.390625 26.6875 -38.390625 C 25.164062 -38.390625 23.757812 -38.003906 22.46875 -37.234375 C 21.1875 -36.472656 20.035156 -35.460938 19.015625 -34.203125 C 17.992188 -32.941406 17.101562 -31.515625 16.34375 -29.921875 C 15.582031 -28.328125 14.925781 -26.707031 14.375 -25.0625 C 13.832031 -23.425781 13.441406 -21.820312 13.203125 -20.25 C 12.960938 -18.6875 12.84375 -17.332031 12.84375 -16.1875 Z M 12.84375 -16.1875 "/></g></g></g><g fill="#ff751f" fill-opacity="1"><g transform="translate(61.070564, 62.676564)"><g><path d="M -0.21875 0.078125 C 1.207031 -6.347656 2.566406 -12.628906 3.859375 -18.765625 C 4.378906 -21.328125 4.921875 -24.035156 5.484375 -26.890625 C 6.054688 -29.742188 6.601562 -32.550781 7.125 -35.3125 C 7.65625 -38.070312 8.15625 -40.734375 8.625 -43.296875 C 9.101562 -45.867188 9.507812 -48.226562 9.84375 -50.375 C 11.226562 -50.800781 12.582031 -51.164062 13.90625 -51.46875 C 15.238281 -51.78125 16.609375 -52.054688 18.015625 -52.296875 C 19.421875 -52.535156 20.738281 -52.65625 21.96875 -52.65625 C 24.113281 -52.65625 25.910156 -52.296875 27.359375 -51.578125 C 28.804688 -50.867188 29.984375 -49.90625 30.890625 -48.6875 C 31.796875 -47.476562 32.4375 -46.0625 32.8125 -44.4375 C 33.195312 -42.820312 33.390625 -41.085938 33.390625 -39.234375 C 33.390625 -36.578125 32.898438 -34.007812 31.921875 -31.53125 C 30.953125 -29.0625 29.644531 -26.863281 28 -24.9375 C 26.363281 -23.007812 24.484375 -21.472656 22.359375 -20.328125 C 20.242188 -19.191406 18.046875 -18.625 15.765625 -18.625 L 14.984375 -18.625 C 14.597656 -17 14.238281 -15.234375 13.90625 -13.328125 C 13.570312 -11.429688 13.289062 -9.675781 13.0625 -8.0625 C 12.726562 -6.15625 12.414062 -4.253906 12.125 -2.359375 Z M 19.6875 -44.015625 C 19.164062 -40.878906 18.644531 -37.90625 18.125 -35.09375 C 17.601562 -32.289062 17.03125 -29.296875 16.40625 -26.109375 C 17.164062 -26.296875 17.960938 -26.734375 18.796875 -27.421875 C 19.628906 -28.117188 20.398438 -29.023438 21.109375 -30.140625 C 21.828125 -31.253906 22.398438 -32.550781 22.828125 -34.03125 C 23.253906 -35.507812 23.46875 -37.054688 23.46875 -38.671875 C 23.46875 -40.429688 23.078125 -41.757812 22.296875 -42.65625 C 21.515625 -43.5625 20.644531 -44.015625 19.6875 -44.015625 Z M 19.6875 -44.015625 "/></g></g></g><g fill="#000000" fill-opacity="1"><g transform="translate(88.116452, 62.676564)"><g><path d="M 38.8125 -27.1875 C 38.476562 -22.332031 37.523438 -18.109375 35.953125 -14.515625 C 34.390625 -10.921875 32.5 -7.910156 30.28125 -5.484375 C 28.070312 -3.066406 25.691406 -1.257812 23.140625 -0.0625 C 20.597656 1.125 18.1875 1.71875 15.90625 1.71875 C 14.144531 1.71875 12.46875 1.332031 10.875 0.5625 C 9.28125 -0.195312 7.898438 -1.347656 6.734375 -2.890625 C 5.578125 -4.429688 4.664062 -6.367188 4 -8.703125 C 3.332031 -11.035156 3 -13.769531 3 -16.90625 C 3 -23.039062 3.878906 -28.390625 5.640625 -32.953125 C 7.398438 -37.523438 9.625 -41.332031 12.3125 -44.375 C 15 -47.414062 17.875 -49.671875 20.9375 -51.140625 C 24.007812 -52.617188 26.875 -53.359375 29.53125 -53.359375 C 31.4375 -53.359375 33.085938 -53.023438 34.484375 -52.359375 C 35.890625 -51.703125 37.046875 -50.8125 37.953125 -49.6875 C 38.859375 -48.570312 39.507812 -47.265625 39.90625 -45.765625 C 40.3125 -44.265625 40.515625 -42.679688 40.515625 -41.015625 L 30.75 -39.171875 C 30.320312 -41.066406 29.75 -42.421875 29.03125 -43.234375 C 28.320312 -44.046875 27.515625 -44.453125 26.609375 -44.453125 C 25.421875 -44.453125 24.113281 -43.601562 22.6875 -41.90625 C 21.257812 -40.21875 19.925781 -38.039062 18.6875 -35.375 C 17.457031 -32.71875 16.410156 -29.796875 15.546875 -26.609375 C 14.691406 -23.421875 14.21875 -20.28125 14.125 -17.1875 C 14.125 -14.238281 14.5625 -12.132812 15.4375 -10.875 C 16.320312 -9.613281 17.453125 -8.984375 18.828125 -8.984375 C 19.785156 -8.984375 20.773438 -9.222656 21.796875 -9.703125 C 22.816406 -10.179688 23.726562 -10.859375 24.53125 -11.734375 C 25.34375 -12.617188 26.019531 -13.640625 26.5625 -14.796875 C 27.113281 -15.960938 27.414062 -17.238281 27.46875 -18.625 L 19.828125 -17.484375 L 21.1875 -24.546875 C 23.425781 -24.828125 25.613281 -25.109375 27.75 -25.390625 C 29.5625 -25.628906 31.476562 -25.914062 33.5 -26.25 C 35.519531 -26.582031 37.289062 -26.894531 38.8125 -27.1875 Z M 38.8125 -27.1875 "/></g></g></g><g fill="#000000" fill-opacity="1"><g transform="translate(123.716563, 62.676564)"><g><path d="M 26.25 -1.421875 C 25.0625 -1.234375 23.753906 -1.019531 22.328125 -0.78125 C 20.898438 -0.539062 19.617188 -0.328125 18.484375 -0.140625 C 18.671875 -1.710938 18.859375 -3.257812 19.046875 -4.78125 C 19.191406 -6.113281 19.320312 -7.441406 19.4375 -8.765625 C 19.5625 -10.097656 19.671875 -11.242188 19.765625 -12.203125 L 13.5625 -12.203125 L 10.703125 -1.921875 C 9.648438 -1.785156 8.410156 -1.632812 6.984375 -1.46875 C 5.554688 -1.300781 4.226562 -1.144531 3 -1 C 1.476562 -0.8125 -0.0195312 -0.617188 -1.5 -0.421875 C 0.40625 -6.753906 2.285156 -12.988281 4.140625 -19.125 C 4.898438 -21.6875 5.695312 -24.367188 6.53125 -27.171875 C 7.363281 -29.984375 8.195312 -32.78125 9.03125 -35.5625 C 9.863281 -38.34375 10.660156 -41.015625 11.421875 -43.578125 C 12.179688 -46.148438 12.84375 -48.507812 13.40625 -50.65625 C 16.644531 -50.894531 19.941406 -51.179688 23.296875 -51.515625 C 26.648438 -51.847656 29.921875 -52.296875 33.109375 -52.859375 C 32.960938 -51.335938 32.804688 -49.445312 32.640625 -47.1875 C 32.472656 -44.9375 32.316406 -42.476562 32.171875 -39.8125 C 32.035156 -37.144531 31.894531 -34.359375 31.75 -31.453125 C 31.601562 -28.554688 31.457031 -25.707031 31.3125 -22.90625 C 31.082031 -16.34375 30.820312 -9.375 30.53125 -2 C 29.101562 -1.757812 27.675781 -1.566406 26.25 -1.421875 Z M 15.265625 -19.328125 C 15.453125 -19.328125 15.796875 -19.335938 16.296875 -19.359375 C 16.796875 -19.390625 17.316406 -19.414062 17.859375 -19.4375 C 18.410156 -19.46875 18.925781 -19.492188 19.40625 -19.515625 C 19.882812 -19.535156 20.21875 -19.570312 20.40625 -19.625 C 20.40625 -19.90625 20.441406 -20.390625 20.515625 -21.078125 C 20.585938 -21.765625 20.65625 -22.546875 20.71875 -23.421875 C 20.789062 -24.304688 20.875 -25.269531 20.96875 -26.3125 C 21.070312 -27.363281 21.171875 -28.390625 21.265625 -29.390625 C 21.453125 -31.816406 21.6875 -34.429688 21.96875 -37.234375 L 22.40625 -43.453125 L 21.328125 -43.375 L 19.6875 -37.234375 Z M 15.265625 -19.328125 "/></g></g></g><g fill="#000000" fill-opacity="1"><g transform="translate(154.608047, 62.676564)"><g><path d="M -2.140625 -0.421875 C -0.046875 -6.753906 1.953125 -12.960938 3.859375 -19.046875 C 4.660156 -21.617188 5.488281 -24.304688 6.34375 -27.109375 C 7.207031 -29.910156 8.066406 -32.691406 8.921875 -35.453125 C 9.773438 -38.210938 10.566406 -40.875 11.296875 -43.4375 C 12.035156 -46.007812 12.691406 -48.390625 13.265625 -50.578125 C 15.878906 -50.578125 18.351562 -50.71875 20.6875 -51 C 23.019531 -51.289062 25.539062 -51.554688 28.25 -51.796875 C 28.101562 -50.742188 27.945312 -49.5625 27.78125 -48.25 C 27.613281 -46.945312 27.421875 -45.582031 27.203125 -44.15625 C 26.992188 -42.726562 26.769531 -41.253906 26.53125 -39.734375 C 26.300781 -38.210938 26.019531 -36.265625 25.6875 -33.890625 C 25.351562 -31.515625 24.898438 -28.539062 24.328125 -24.96875 L 25.25 -24.96875 C 26.632812 -28.582031 27.773438 -31.585938 28.671875 -33.984375 C 29.578125 -36.390625 30.316406 -38.351562 30.890625 -39.875 C 31.460938 -41.40625 32.046875 -42.894531 32.640625 -44.34375 C 33.234375 -45.789062 33.800781 -47.164062 34.34375 -48.46875 C 34.894531 -49.78125 35.410156 -50.9375 35.890625 -51.9375 C 37.078125 -52.03125 38.191406 -52.148438 39.234375 -52.296875 C 40.285156 -52.441406 41.332031 -52.597656 42.375 -52.765625 C 43.425781 -52.929688 44.484375 -53.09375 45.546875 -53.25 C 46.617188 -53.414062 47.796875 -53.617188 49.078125 -53.859375 C 48.609375 -51.097656 48.160156 -48.265625 47.734375 -45.359375 C 47.304688 -42.460938 46.925781 -39.578125 46.59375 -36.703125 C 46.257812 -33.828125 45.9375 -30.984375 45.625 -28.171875 C 45.3125 -25.367188 45.035156 -22.707031 44.796875 -20.1875 C 44.234375 -14.289062 43.738281 -8.535156 43.3125 -2.921875 L 30.890625 -0.71875 C 30.890625 -0.945312 30.925781 -1.582031 31 -2.625 C 31.070312 -3.675781 31.164062 -4.960938 31.28125 -6.484375 C 31.40625 -8.015625 31.570312 -9.707031 31.78125 -11.5625 C 32 -13.414062 32.210938 -15.269531 32.421875 -17.125 C 32.640625 -18.976562 32.863281 -20.769531 33.09375 -22.5 C 33.332031 -24.238281 33.570312 -25.726562 33.8125 -26.96875 L 33.171875 -26.96875 C 32.503906 -24.96875 31.765625 -22.863281 30.953125 -20.65625 C 30.148438 -18.445312 29.332031 -16.195312 28.5 -13.90625 C 27.664062 -11.625 26.84375 -9.390625 26.03125 -7.203125 C 25.226562 -5.015625 24.519531 -2.921875 23.90625 -0.921875 C 22.238281 -0.878906 20.804688 -0.820312 19.609375 -0.75 C 18.421875 -0.675781 17.046875 -0.59375 15.484375 -0.5 L 17.765625 -26.96875 L 16.6875 -26.96875 C 16.59375 -26.351562 16.351562 -25.316406 15.96875 -23.859375 C 15.59375 -22.410156 15.15625 -20.742188 14.65625 -18.859375 C 14.15625 -16.984375 13.617188 -15.035156 13.046875 -13.015625 C 12.484375 -10.992188 11.953125 -9.113281 11.453125 -7.375 C 10.953125 -5.644531 10.535156 -4.21875 10.203125 -3.09375 C 9.867188 -1.976562 9.675781 -1.351562 9.625 -1.21875 Z M -2.140625 -0.421875 "/></g></g></g><g fill="#000000" fill-opacity="1"><g transform="translate(198.769307, 62.676564)"><g><path d="M -2.140625 -0.421875 C -0.046875 -6.753906 1.953125 -12.960938 3.859375 -19.046875 C 4.660156 -21.617188 5.488281 -24.304688 6.34375 -27.109375 C 7.207031 -29.910156 8.066406 -32.691406 8.921875 -35.453125 C 9.773438 -38.210938 10.566406 -40.875 11.296875 -43.4375 C 12.035156 -46.007812 12.691406 -48.390625 13.265625 -50.578125 C 15.878906 -50.578125 18.351562 -50.71875 20.6875 -51 C 23.019531 -51.289062 25.539062 -51.554688 28.25 -51.796875 C 28.101562 -50.742188 27.945312 -49.5625 27.78125 -48.25 C 27.613281 -46.945312 27.421875 -45.582031 27.203125 -44.15625 C 26.992188 -42.726562 26.769531 -41.253906 26.53125 -39.734375 C 26.300781 -38.210938 26.019531 -36.265625 25.6875 -33.890625 C 25.351562 -31.515625 24.898438 -28.539062 24.328125 -24.96875 L 25.25 -24.96875 C 26.632812 -28.582031 27.773438 -31.585938 28.671875 -33.984375 C 29.578125 -36.390625 30.316406 -38.351562 30.890625 -39.875 C 31.460938 -41.40625 32.046875 -42.894531 32.640625 -44.34375 C 33.234375 -45.789062 33.800781 -47.164062 34.34375 -48.46875 C 34.894531 -49.78125 35.410156 -50.9375 35.890625 -51.9375 C 37.078125 -52.03125 38.191406 -52.148438 39.234375 -52.296875 C 40.285156 -52.441406 41.332031 -52.597656 42.375 -52.765625 C 43.425781 -52.929688 44.484375 -53.09375 45.546875 -53.25 C 46.617188 -53.414062 47.796875 -53.617188 49.078125 -53.859375 C 48.609375 -51.097656 48.160156 -48.265625 47.734375 -45.359375 C 47.304688 -42.460938 46.925781 -39.578125 46.59375 -36.703125 C 46.257812 -33.828125 45.9375 -30.984375 45.625 -28.171875 C 45.3125 -25.367188 45.035156 -22.707031 44.796875 -20.1875 C 44.234375 -14.289062 43.738281 -8.535156 43.3125 -2.921875 L 30.890625 -0.71875 C 30.890625 -0.945312 30.925781 -1.582031 31 -2.625 C 31.070312 -3.675781 31.164062 -4.960938 31.28125 -6.484375 C 31.40625 -8.015625 31.570312 -9.707031 31.78125 -11.5625 C 32 -13.414062 32.210938 -15.269531 32.421875 -17.125 C 32.640625 -18.976562 32.863281 -20.769531 33.09375 -22.5 C 33.332031 -24.238281 33.570312 -25.726562 33.8125 -26.96875 L 33.171875 -26.96875 C 32.503906 -24.96875 31.765625 -22.863281 30.953125 -20.65625 C 30.148438 -18.445312 29.332031 -16.195312 28.5 -13.90625 C 27.664062 -11.625 26.84375 -9.390625 26.03125 -7.203125 C 25.226562 -5.015625 24.519531 -2.921875 23.90625 -0.921875 C 22.238281 -0.878906 20.804688 -0.820312 19.609375 -0.75 C 18.421875 -0.675781 17.046875 -0.59375 15.484375 -0.5 L 17.765625 -26.96875 L 16.6875 -26.96875 C 16.59375 -26.351562 16.351562 -25.316406 15.96875 -23.859375 C 15.59375 -22.410156 15.15625 -20.742188 14.65625 -18.859375 C 14.15625 -16.984375 13.617188 -15.035156 13.046875 -13.015625 C 12.484375 -10.992188 11.953125 -9.113281 11.453125 -7.375 C 10.953125 -5.644531 10.535156 -4.21875 10.203125 -3.09375 C 9.867188 -1.976562 9.675781 -1.351562 9.625 -1.21875 Z M -2.140625 -0.421875 "/></g></g></g><g fill="#000000" fill-opacity="1"><g transform="translate(242.93186, 62.676564)"><g/></g></g><g fill="#000000" fill-opacity="1"><g transform="translate(256.843728, 62.676564)"><g/></g></g><g fill="#000000" fill-opacity="1"><g transform="translate(270.755597, 62.676564)"><g/></g></g><g fill="#000000" fill-opacity="1"><g transform="translate(284.676459, 62.676564)"><g><path d="M 0.359375 0.359375 C 1.785156 -6.492188 3.140625 -13.128906 4.421875 -19.546875 C 4.898438 -22.304688 5.410156 -25.160156 5.953125 -28.109375 C 6.503906 -31.054688 7.015625 -33.96875 7.484375 -36.84375 C 7.960938 -39.726562 8.390625 -42.488281 8.765625 -45.125 C 9.148438 -47.757812 9.4375 -50.148438 9.625 -52.296875 C 10.25 -52.242188 10.773438 -52.21875 11.203125 -52.21875 C 11.628906 -52.21875 12.128906 -52.21875 12.703125 -52.21875 C 13.367188 -52.21875 14.175781 -52.226562 15.125 -52.25 C 16.070312 -52.28125 17.019531 -52.316406 17.96875 -52.359375 C 18.925781 -52.410156 19.953125 -52.460938 21.046875 -52.515625 C 21.710938 -49.179688 22.304688 -45.96875 22.828125 -42.875 C 23.347656 -40.164062 23.878906 -37.382812 24.421875 -34.53125 C 24.972656 -31.675781 25.460938 -29.25 25.890625 -27.25 C 26.085938 -28.207031 26.300781 -29.316406 26.53125 -30.578125 C 26.769531 -31.835938 27.03125 -33.15625 27.3125 -34.53125 C 27.601562 -35.90625 27.878906 -37.296875 28.140625 -38.703125 C 28.398438 -40.109375 28.675781 -41.5 28.96875 -42.875 C 29.632812 -45.96875 30.320312 -49.15625 31.03125 -52.4375 L 39.734375 -53.5 C 38.117188 -46.226562 36.691406 -39.332031 35.453125 -32.8125 C 34.890625 -30.007812 34.332031 -27.164062 33.78125 -24.28125 C 33.226562 -21.40625 32.710938 -18.648438 32.234375 -16.015625 C 31.765625 -13.378906 31.363281 -10.929688 31.03125 -8.671875 C 30.695312 -6.410156 30.4375 -4.519531 30.25 -3 C 30.101562 -3 29.539062 -2.890625 28.5625 -2.671875 C 27.59375 -2.460938 26.476562 -2.210938 25.21875 -1.921875 C 23.957031 -1.640625 22.695312 -1.351562 21.4375 -1.0625 C 20.175781 -0.78125 19.238281 -0.519531 18.625 -0.28125 C 18.332031 -4.09375 18.019531 -7.707031 17.6875 -11.125 C 17.550781 -12.601562 17.398438 -14.113281 17.234375 -15.65625 C 17.066406 -17.207031 16.882812 -18.695312 16.6875 -20.125 C 16.5 -21.550781 16.3125 -22.878906 16.125 -24.109375 C 15.9375 -25.347656 15.742188 -26.421875 15.546875 -27.328125 C 15.410156 -26.421875 15.222656 -25.375 14.984375 -24.1875 C 14.742188 -23 14.503906 -21.738281 14.265625 -20.40625 C 14.023438 -19.070312 13.785156 -17.679688 13.546875 -16.234375 C 13.316406 -14.785156 13.054688 -13.394531 12.765625 -12.0625 C 12.148438 -8.875 11.484375 -5.539062 10.765625 -2.0625 Z M 0.359375 0.359375 "/></g></g></g></g></g><g clip-path="url(#cef98f16da)"><g clip-path="url(#fbf2c7fc4c)"><g clip-path="url(#b671c7b660)"><g clip-path="url(#da83b55827)"><path fill="#000000" d="M 95.960938 170.335938 C 95.792969 170.324219 95.625 170.308594 95.457031 170.292969 C 95.585938 170.039062 95.691406 169.835938 95.773438 169.675781 C 100.738281 160.433594 105.652344 156.519531 105.652344 156.519531 C 102.664062 150.859375 92.667969 145.695312 86.296875 146.550781 C 86.296875 146.550781 85.96875 152.824219 81.320312 162.234375 C 81.242188 162.386719 81.140625 162.578125 81.019531 162.816406 C 80.933594 162.714844 80.847656 162.613281 80.757812 162.507812 C 73.847656 154.277344 74.890625 167.753906 84.996094 172.957031 C 95.039062 178.132812 106.484375 171.171875 95.960938 170.335938 Z M 95.960938 170.335938 " fill-opacity="1" fill-rule="nonzero"/></g></g></g></g></svg>