<svg xmlns="http://www.w3.org/2000/svg" xmlns:xlink="http://www.w3.org/1999/xlink" width="500" zoomAndPan="magnify" viewBox="0 0 375 374.999991" height="500" preserveAspectRatio="xMidYMid meet" version="1.0"><path fill="#737373" d="M 305.46875 187.496094 C 305.46875 185.566406 305.421875 183.636719 305.324219 181.707031 C 305.230469 179.78125 305.089844 177.855469 304.898438 175.933594 C 304.710938 174.011719 304.472656 172.097656 304.191406 170.1875 C 303.90625 168.277344 303.578125 166.375 303.203125 164.480469 C 302.824219 162.589844 302.402344 160.703125 301.933594 158.832031 C 301.464844 156.960938 300.949219 155.097656 300.386719 153.25 C 299.828125 151.402344 299.222656 149.570312 298.570312 147.753906 C 297.921875 145.9375 297.226562 144.136719 296.488281 142.351562 C 295.75 140.566406 294.96875 138.804688 294.140625 137.058594 C 293.316406 135.3125 292.449219 133.589844 291.539062 131.886719 C 290.628906 130.183594 289.675781 128.503906 288.683594 126.847656 C 287.691406 125.191406 286.660156 123.5625 285.585938 121.957031 C 284.515625 120.351562 283.402344 118.773438 282.253906 117.222656 C 281.101562 115.671875 279.914062 114.148438 278.691406 112.65625 C 277.464844 111.164062 276.203125 109.703125 274.90625 108.273438 C 273.609375 106.839844 272.28125 105.445312 270.914062 104.078125 C 269.550781 102.714844 268.152344 101.382812 266.722656 100.085938 C 265.292969 98.789062 263.828125 97.527344 262.335938 96.304688 C 260.84375 95.078125 259.324219 93.890625 257.773438 92.742188 C 256.222656 91.589844 254.644531 90.480469 253.039062 89.40625 C 251.433594 88.335938 249.800781 87.300781 248.144531 86.308594 C 246.492188 85.316406 244.8125 84.367188 243.109375 83.457031 C 241.40625 82.546875 239.679688 81.675781 237.9375 80.851562 C 236.191406 80.027344 234.425781 79.246094 232.644531 78.503906 C 230.859375 77.765625 229.058594 77.074219 227.242188 76.421875 C 225.421875 75.769531 223.589844 75.164062 221.742188 74.605469 C 219.894531 74.046875 218.035156 73.53125 216.160156 73.0625 C 214.289062 72.59375 212.40625 72.167969 210.511719 71.792969 C 208.617188 71.414062 206.714844 71.085938 204.808594 70.800781 C 202.898438 70.519531 200.980469 70.28125 199.058594 70.09375 C 197.140625 69.90625 195.214844 69.761719 193.285156 69.667969 C 191.355469 69.574219 189.429688 69.527344 187.496094 69.527344 C 185.566406 69.527344 183.636719 69.574219 181.707031 69.667969 C 179.78125 69.761719 177.855469 69.90625 175.933594 70.09375 C 174.011719 70.28125 172.097656 70.519531 170.1875 70.800781 C 168.277344 71.085938 166.375 71.414062 164.480469 71.792969 C 162.589844 72.167969 160.707031 72.59375 158.832031 73.0625 C 156.960938 73.53125 155.097656 74.046875 153.25 74.605469 C 151.40625 75.164062 149.570312 75.769531 147.753906 76.421875 C 145.9375 77.074219 144.136719 77.765625 142.351562 78.503906 C 140.566406 79.246094 138.804688 80.027344 137.058594 80.851562 C 135.3125 81.675781 133.589844 82.546875 131.886719 83.457031 C 130.183594 84.367188 128.503906 85.316406 126.847656 86.308594 C 125.191406 87.300781 123.5625 88.335938 121.957031 89.40625 C 120.351562 90.480469 118.773438 91.589844 117.222656 92.742188 C 115.671875 93.890625 114.148438 95.078125 112.65625 96.304688 C 111.164062 97.527344 109.703125 98.789062 108.273438 100.085938 C 106.84375 101.382812 105.445312 102.714844 104.078125 104.078125 C 102.714844 105.445312 101.382812 106.839844 100.085938 108.273438 C 98.789062 109.703125 97.527344 111.164062 96.304688 112.65625 C 95.078125 114.148438 93.890625 115.671875 92.742188 117.222656 C 91.589844 118.773438 90.480469 120.351562 89.40625 121.957031 C 88.335938 123.5625 87.300781 125.191406 86.308594 126.847656 C 85.316406 128.503906 84.367188 130.183594 83.457031 131.886719 C 82.546875 133.589844 81.679688 135.3125 80.851562 137.058594 C 80.027344 138.804688 79.246094 140.566406 78.507812 142.351562 C 77.765625 144.136719 77.074219 145.9375 76.421875 147.753906 C 75.773438 149.570312 75.167969 151.402344 74.605469 153.25 C 74.046875 155.097656 73.53125 156.960938 73.0625 158.832031 C 72.59375 160.703125 72.167969 162.589844 71.792969 164.480469 C 71.417969 166.375 71.085938 168.277344 70.804688 170.1875 C 70.519531 172.097656 70.285156 174.011719 70.09375 175.933594 C 69.90625 177.855469 69.761719 179.78125 69.667969 181.707031 C 69.574219 183.636719 69.527344 185.566406 69.527344 187.496094 C 69.527344 189.425781 69.574219 191.355469 69.667969 193.285156 C 69.761719 195.214844 69.90625 197.136719 70.09375 199.058594 C 70.285156 200.980469 70.519531 202.898438 70.804688 204.808594 C 71.085938 206.714844 71.417969 208.617188 71.792969 210.511719 C 72.167969 212.40625 72.59375 214.289062 73.0625 216.160156 C 73.53125 218.035156 74.046875 219.894531 74.605469 221.742188 C 75.167969 223.589844 75.773438 225.421875 76.421875 227.238281 C 77.074219 229.058594 77.765625 230.859375 78.507812 232.640625 C 79.246094 234.425781 80.027344 236.191406 80.851562 237.9375 C 81.679688 239.679688 82.546875 241.40625 83.457031 243.109375 C 84.367188 244.8125 85.316406 246.488281 86.308594 248.144531 C 87.300781 249.800781 88.335938 251.433594 89.40625 253.039062 C 90.480469 254.644531 91.589844 256.222656 92.742188 257.773438 C 93.890625 259.324219 95.078125 260.84375 96.304688 262.335938 C 97.527344 263.828125 98.789062 265.289062 100.085938 266.722656 C 101.382812 268.152344 102.714844 269.550781 104.078125 270.914062 C 105.445312 272.28125 106.84375 273.609375 108.273438 274.90625 C 109.703125 276.203125 111.164062 277.464844 112.65625 278.691406 C 114.148438 279.914062 115.671875 281.101562 117.222656 282.253906 C 118.773438 283.402344 120.351562 284.511719 121.957031 285.585938 C 123.5625 286.660156 125.191406 287.691406 126.847656 288.683594 C 128.503906 289.675781 130.183594 290.628906 131.886719 291.539062 C 133.589844 292.449219 135.3125 293.316406 137.058594 294.140625 C 138.804688 294.96875 140.566406 295.75 142.351562 296.488281 C 144.136719 297.226562 145.9375 297.921875 147.753906 298.570312 C 149.570312 299.222656 151.40625 299.828125 153.25 300.386719 C 155.097656 300.949219 156.960938 301.464844 158.832031 301.933594 C 160.707031 302.402344 162.589844 302.824219 164.480469 303.199219 C 166.375 303.578125 168.277344 303.90625 170.1875 304.191406 C 172.097656 304.472656 174.011719 304.710938 175.933594 304.898438 C 177.855469 305.089844 179.78125 305.230469 181.707031 305.324219 C 183.636719 305.421875 185.566406 305.46875 187.496094 305.46875 C 189.429688 305.46875 191.355469 305.421875 193.285156 305.324219 C 195.214844 305.230469 197.140625 305.089844 199.058594 304.898438 C 200.980469 304.710938 202.898438 304.472656 204.808594 304.191406 C 206.714844 303.90625 208.617188 303.578125 210.511719 303.199219 C 212.40625 302.824219 214.289062 302.402344 216.160156 301.933594 C 218.035156 301.464844 219.894531 300.949219 221.742188 300.386719 C 223.589844 299.828125 225.421875 299.222656 227.242188 298.570312 C 229.058594 297.921875 230.859375 297.226562 232.644531 296.488281 C 234.425781 295.75 236.191406 294.96875 237.9375 294.140625 C 239.679688 293.316406 241.40625 292.449219 243.109375 291.539062 C 244.8125 290.628906 246.492188 289.675781 248.144531 288.683594 C 249.800781 287.691406 251.433594 286.660156 253.039062 285.585938 C 254.644531 284.511719 256.222656 283.402344 257.773438 282.253906 C 259.324219 281.101562 260.84375 279.914062 262.335938 278.691406 C 263.828125 277.464844 265.289062 276.203125 266.722656 274.90625 C 268.152344 273.609375 269.550781 272.28125 270.914062 270.914062 C 272.28125 269.550781 273.609375 268.152344 274.90625 266.722656 C 276.203125 265.289062 277.464844 263.828125 278.691406 262.335938 C 279.914062 260.84375 281.101562 259.324219 282.253906 257.773438 C 283.402344 256.222656 284.515625 254.644531 285.585938 253.039062 C 286.660156 251.433594 287.691406 249.800781 288.683594 248.144531 C 289.675781 246.488281 290.628906 244.8125 291.539062 243.109375 C 292.449219 241.40625 293.316406 239.679688 294.140625 237.9375 C 294.96875 236.191406 295.75 234.425781 296.488281 232.640625 C 297.226562 230.859375 297.921875 229.058594 298.570312 227.238281 C 299.222656 225.421875 299.828125 223.589844 300.386719 221.742188 C 300.949219 219.894531 301.464844 218.035156 301.933594 216.160156 C 302.402344 214.289062 302.824219 212.40625 303.203125 210.511719 C 303.578125 208.617188 303.90625 206.714844 304.191406 204.808594 C 304.472656 202.898438 304.710938 200.980469 304.898438 199.058594 C 305.089844 197.136719 305.230469 195.214844 305.324219 193.285156 C 305.421875 191.355469 305.46875 189.425781 305.46875 187.496094 Z M 305.46875 187.496094 " fill-opacity="1" fill-rule="nonzero"/><path fill="#000000" d="M 266.453125 108.542969 C 265.160156 107.25 263.835938 105.988281 262.484375 104.761719 C 261.128906 103.535156 259.746094 102.34375 258.332031 101.183594 C 256.921875 100.023438 255.480469 98.898438 254.011719 97.8125 C 252.542969 96.722656 251.050781 95.671875 249.53125 94.65625 C 248.011719 93.640625 246.46875 92.664062 244.902344 91.722656 C 243.335938 90.785156 241.746094 89.882812 240.132812 89.023438 C 238.519531 88.160156 236.890625 87.339844 235.238281 86.558594 C 233.585938 85.777344 231.914062 85.035156 230.226562 84.335938 C 228.539062 83.636719 226.835938 82.980469 225.113281 82.363281 C 223.394531 81.75 221.660156 81.175781 219.910156 80.644531 C 218.160156 80.117188 216.402344 79.628906 214.628906 79.183594 C 212.855469 78.738281 211.074219 78.339844 209.28125 77.984375 C 207.488281 77.625 205.6875 77.3125 203.878906 77.046875 C 202.074219 76.777344 200.261719 76.554688 198.441406 76.375 C 196.621094 76.195312 194.800781 76.0625 192.976562 75.972656 C 191.152344 75.882812 189.324219 75.835938 187.496094 75.835938 C 185.667969 75.835938 183.84375 75.882812 182.019531 75.972656 C 180.191406 76.0625 178.371094 76.195312 176.550781 76.375 C 174.734375 76.554688 172.921875 76.777344 171.113281 77.046875 C 169.304688 77.3125 167.503906 77.625 165.714844 77.984375 C 163.921875 78.339844 162.136719 78.738281 160.367188 79.183594 C 158.59375 79.628906 156.832031 80.117188 155.082031 80.644531 C 153.335938 81.175781 151.601562 81.75 149.878906 82.363281 C 148.160156 82.980469 146.453125 83.636719 144.765625 84.335938 C 143.078125 85.035156 141.410156 85.777344 139.757812 86.558594 C 138.105469 87.339844 136.472656 88.160156 134.859375 89.023438 C 133.25 89.882812 131.660156 90.785156 130.09375 91.722656 C 128.523438 92.664062 126.980469 93.640625 125.460938 94.65625 C 123.941406 95.671875 122.449219 96.722656 120.980469 97.8125 C 119.515625 98.898438 118.074219 100.023438 116.660156 101.183594 C 115.25 102.34375 113.863281 103.535156 112.511719 104.761719 C 111.15625 105.988281 109.832031 107.25 108.542969 108.542969 C 107.25 109.835938 105.988281 111.15625 104.761719 112.511719 C 103.535156 113.867188 102.34375 115.25 101.183594 116.660156 C 100.023438 118.074219 98.898438 119.515625 97.8125 120.980469 C 96.722656 122.449219 95.671875 123.941406 94.65625 125.460938 C 93.640625 126.980469 92.664062 128.523438 91.722656 130.09375 C 90.785156 131.660156 89.882812 133.25 89.023438 134.859375 C 88.160156 136.472656 87.339844 138.105469 86.558594 139.757812 C 85.777344 141.410156 85.035156 143.078125 84.335938 144.765625 C 83.636719 146.457031 82.980469 148.160156 82.363281 149.878906 C 81.75 151.601562 81.175781 153.335938 80.644531 155.085938 C 80.113281 156.832031 79.628906 158.59375 79.183594 160.367188 C 78.738281 162.140625 78.339844 163.921875 77.984375 165.714844 C 77.625 167.503906 77.3125 169.304688 77.046875 171.113281 C 76.777344 172.921875 76.554688 174.734375 76.375 176.550781 C 76.195312 178.371094 76.0625 180.191406 75.972656 182.019531 C 75.882812 183.84375 75.835938 185.667969 75.835938 187.496094 C 75.835938 189.324219 75.882812 191.152344 75.972656 192.976562 C 76.0625 194.800781 76.195312 196.625 76.375 198.441406 C 76.554688 200.261719 76.777344 202.074219 77.046875 203.882812 C 77.3125 205.6875 77.625 207.488281 77.984375 209.28125 C 78.339844 211.074219 78.738281 212.855469 79.183594 214.628906 C 79.628906 216.402344 80.113281 218.160156 80.644531 219.910156 C 81.175781 221.660156 81.75 223.394531 82.363281 225.113281 C 82.980469 226.835938 83.636719 228.539062 84.335938 230.226562 C 85.035156 231.914062 85.777344 233.585938 86.558594 235.238281 C 87.339844 236.890625 88.160156 238.523438 89.023438 240.132812 C 89.882812 241.746094 90.785156 243.335938 91.722656 244.902344 C 92.664062 246.46875 93.640625 248.011719 94.65625 249.53125 C 95.671875 251.050781 96.722656 252.542969 97.8125 254.011719 C 98.898438 255.480469 100.023438 256.921875 101.183594 258.332031 C 102.34375 259.746094 103.535156 261.128906 104.761719 262.484375 C 105.988281 263.835938 107.25 265.160156 108.542969 266.453125 C 109.832031 267.746094 111.15625 269.003906 112.511719 270.230469 C 113.863281 271.457031 115.25 272.652344 116.660156 273.8125 C 118.074219 274.96875 119.515625 276.09375 120.980469 277.183594 C 122.449219 278.273438 123.941406 279.324219 125.460938 280.339844 C 126.980469 281.355469 128.523438 282.332031 130.09375 283.269531 C 131.660156 284.210938 133.25 285.109375 134.859375 285.972656 C 136.472656 286.832031 138.105469 287.65625 139.757812 288.4375 C 141.410156 289.21875 143.078125 289.957031 144.765625 290.65625 C 146.453125 291.355469 148.160156 292.015625 149.878906 292.628906 C 151.601562 293.246094 153.335938 293.816406 155.082031 294.347656 C 156.832031 294.878906 158.59375 295.367188 160.367188 295.808594 C 162.136719 296.253906 163.921875 296.65625 165.714844 297.011719 C 167.503906 297.367188 169.304688 297.679688 171.113281 297.949219 C 172.921875 298.214844 174.734375 298.441406 176.550781 298.617188 C 178.371094 298.796875 180.191406 298.933594 182.019531 299.023438 C 183.84375 299.113281 185.667969 299.15625 187.496094 299.15625 C 189.324219 299.15625 191.152344 299.113281 192.976562 299.023438 C 194.800781 298.933594 196.621094 298.796875 198.441406 298.617188 C 200.261719 298.441406 202.074219 298.214844 203.878906 297.949219 C 205.6875 297.679688 207.488281 297.367188 209.28125 297.011719 C 211.074219 296.65625 212.855469 296.253906 214.628906 295.808594 C 216.402344 295.367188 218.160156 294.878906 219.910156 294.347656 C 221.660156 293.816406 223.394531 293.246094 225.113281 292.628906 C 226.835938 292.015625 228.539062 291.355469 230.226562 290.65625 C 231.914062 289.957031 233.585938 289.21875 235.238281 288.4375 C 236.890625 287.65625 238.519531 286.832031 240.132812 285.972656 C 241.746094 285.109375 243.335938 284.210938 244.902344 283.269531 C 246.46875 282.332031 248.011719 281.355469 249.53125 280.339844 C 251.050781 279.324219 252.542969 278.273438 254.011719 277.183594 C 255.480469 276.09375 256.921875 274.96875 258.332031 273.8125 C 259.746094 272.652344 261.128906 271.457031 262.484375 270.230469 C 263.835938 269.003906 265.160156 267.746094 266.453125 266.453125 C 267.746094 265.160156 269.003906 263.835938 270.230469 262.484375 C 271.457031 261.128906 272.652344 259.746094 273.8125 258.332031 C 274.96875 256.921875 276.09375 255.480469 277.183594 254.011719 C 278.269531 252.546875 279.324219 251.050781 280.339844 249.53125 C 281.355469 248.011719 282.332031 246.46875 283.269531 244.902344 C 284.210938 243.335938 285.109375 241.746094 285.972656 240.132812 C 286.832031 238.523438 287.65625 236.890625 288.4375 235.238281 C 289.21875 233.585938 289.957031 231.914062 290.65625 230.226562 C 291.355469 228.539062 292.015625 226.835938 292.628906 225.113281 C 293.246094 223.394531 293.816406 221.660156 294.347656 219.910156 C 294.878906 218.160156 295.367188 216.402344 295.808594 214.628906 C 296.253906 212.855469 296.65625 211.074219 297.011719 209.28125 C 297.367188 207.488281 297.679688 205.6875 297.949219 203.882812 C 298.214844 202.074219 298.441406 200.261719 298.617188 198.441406 C 298.796875 196.625 298.933594 194.800781 299.023438 192.976562 C 299.113281 191.152344 299.15625 189.324219 299.15625 187.496094 C 299.15625 185.667969 299.113281 183.84375 299.023438 182.019531 C 298.933594 180.191406 298.796875 178.371094 298.617188 176.550781 C 298.441406 174.734375 298.214844 172.921875 297.949219 171.113281 C 297.679688 169.304688 297.367188 167.503906 297.011719 165.714844 C 296.65625 163.921875 296.253906 162.140625 295.808594 160.367188 C 295.367188 158.59375 294.878906 156.832031 294.347656 155.085938 C 293.816406 153.335938 293.246094 151.601562 292.628906 149.878906 C 292.015625 148.160156 291.355469 146.457031 290.65625 144.765625 C 289.957031 143.078125 289.21875 141.410156 288.4375 139.757812 C 287.65625 138.105469 286.832031 136.472656 285.972656 134.859375 C 285.109375 133.25 284.210938 131.660156 283.269531 130.09375 C 282.332031 128.523438 281.355469 126.980469 280.339844 125.460938 C 279.324219 123.941406 278.269531 122.449219 277.183594 120.980469 C 276.09375 119.515625 274.96875 118.074219 273.8125 116.660156 C 272.652344 115.25 271.457031 113.867188 270.230469 112.511719 C 269.003906 111.15625 267.746094 109.835938 266.453125 108.542969 Z M 266.453125 108.542969 " fill-opacity="1" fill-rule="nonzero"/><path fill="#737373" d="M 187.496094 305.46875 C 122.386719 305.46875 69.527344 252.605469 69.527344 187.496094 C 69.527344 122.386719 122.386719 69.527344 187.496094 69.527344 C 252.609375 69.527344 305.46875 122.386719 305.46875 187.496094 C 305.46875 252.605469 252.609375 305.46875 187.496094 305.46875 Z M 266.453125 266.453125 C 310.027344 222.875 310.027344 152.117188 266.453125 108.542969 C 222.875 64.964844 152.117188 64.964844 108.542969 108.542969 C 64.964844 152.117188 64.964844 222.875 108.542969 266.453125 C 152.117188 310.027344 222.875 310.027344 266.453125 266.453125 Z M 187.496094 95.324219 C 238.367188 95.324219 279.667969 136.625 279.667969 187.496094 C 279.667969 238.367188 238.367188 279.667969 187.496094 279.667969 C 136.625 279.667969 95.324219 238.367188 95.324219 187.496094 C 95.324219 136.625 136.625 95.324219 187.496094 95.324219 Z M 187.496094 98.863281 C 138.578125 98.863281 98.863281 138.578125 98.863281 187.496094 C 98.863281 236.414062 138.578125 276.128906 187.496094 276.128906 C 236.414062 276.128906 276.132812 236.414062 276.132812 187.496094 C 276.132812 138.578125 236.414062 98.863281 187.496094 98.863281 Z M 187.496094 118.285156 C 225.695312 118.285156 256.707031 149.296875 256.707031 187.496094 C 256.707031 225.695312 225.695312 256.707031 187.496094 256.707031 C 149.300781 256.707031 118.285156 225.695312 118.285156 187.496094 C 118.285156 149.296875 149.300781 118.285156 187.496094 118.285156 Z M 187.496094 121.824219 C 151.253906 121.824219 121.824219 151.25 121.824219 187.496094 C 121.824219 223.742188 151.253906 253.167969 187.496094 253.167969 C 223.742188 253.167969 253.167969 223.742188 253.167969 187.496094 C 253.167969 151.25 223.742188 121.824219 187.496094 121.824219 Z M 187.496094 145.449219 C 210.703125 145.449219 229.542969 164.289062 229.542969 187.496094 C 229.542969 210.703125 210.703125 229.542969 187.496094 229.542969 C 164.289062 229.542969 145.449219 210.703125 145.449219 187.496094 C 145.449219 164.289062 164.289062 145.449219 187.496094 145.449219 Z M 187.496094 148.988281 C 166.242188 148.988281 148.988281 166.242188 148.988281 187.496094 C 148.988281 208.75 166.242188 226.003906 187.496094 226.003906 C 208.75 226.003906 226.003906 208.75 226.003906 187.496094 C 226.003906 166.242188 208.75 148.988281 187.496094 148.988281 Z M 187.496094 168.878906 C 197.773438 168.878906 206.113281 177.222656 206.113281 187.496094 C 206.113281 197.773438 197.773438 206.113281 187.496094 206.113281 C 177.222656 206.113281 168.878906 197.773438 168.878906 187.496094 C 168.878906 177.222656 177.222656 168.878906 187.496094 168.878906 Z M 187.496094 172.417969 C 179.175781 172.417969 172.417969 179.175781 172.417969 187.496094 C 172.417969 195.816406 179.175781 202.574219 187.496094 202.574219 C 195.820312 202.574219 202.574219 195.816406 202.574219 187.496094 C 202.574219 179.175781 195.820312 172.417969 187.496094 172.417969 Z M 187.496094 172.417969 " fill-opacity="1" fill-rule="evenodd"/><path fill="#545454" d="M 206.65625 97.324219 C 251.8125 104.71875 286.3125 143.957031 286.3125 191.191406 C 286.3125 243.6875 243.6875 286.3125 191.191406 286.3125 C 143.957031 286.3125 104.71875 251.8125 97.324219 206.65625 C 106.152344 248.347656 143.195312 279.667969 187.496094 279.667969 C 238.367188 279.667969 279.667969 238.367188 279.667969 187.496094 C 279.667969 143.195312 248.347656 106.152344 206.65625 97.324219 Z M 202.398438 119.898438 C 236.910156 125.289062 263.351562 155.175781 263.351562 191.191406 C 263.351562 231.015625 231.015625 263.351562 191.191406 263.351562 C 155.175781 263.351562 125.289062 236.910156 119.898438 202.398438 C 126.722656 233.445312 154.414062 256.707031 187.496094 256.707031 C 225.695312 256.707031 256.707031 225.695312 256.707031 187.496094 C 256.707031 154.414062 233.445312 126.722656 202.398438 119.898438 Z M 197.355469 146.613281 C 219.277344 149.621094 236.1875 168.445312 236.1875 191.191406 C 236.1875 216.023438 216.023438 236.1875 191.191406 236.1875 C 168.445312 236.1875 149.621094 219.277344 146.613281 197.355469 C 151.054688 215.8125 167.683594 229.542969 187.496094 229.542969 C 210.703125 229.542969 229.542969 210.703125 229.542969 187.496094 C 229.542969 167.683594 215.8125 151.054688 197.355469 146.613281 Z M 192.960938 169.695312 C 204.035156 170.597656 212.757812 179.882812 212.757812 191.191406 C 212.757812 203.09375 203.09375 212.757812 191.191406 212.757812 C 179.882812 212.757812 170.597656 204.035156 169.695312 192.960938 C 172.03125 200.574219 179.125 206.113281 187.496094 206.113281 C 197.773438 206.113281 206.113281 197.773438 206.113281 187.496094 C 206.113281 179.125 200.574219 172.03125 192.960938 169.695312 Z M 192.960938 169.695312 " fill-opacity="1" fill-rule="evenodd"/><path fill="#d9d9d9" d="M 235.355469 115.367188 C 222.378906 107.785156 207.289062 103.441406 191.191406 103.441406 C 142.761719 103.441406 103.441406 142.761719 103.441406 191.191406 C 103.441406 207.289062 107.785156 222.378906 115.367188 235.355469 C 106.246094 221.640625 100.929688 205.183594 100.929688 187.496094 C 100.929688 139.71875 139.71875 100.929688 187.496094 100.929688 C 205.183594 100.929688 221.640625 106.246094 235.355469 115.367188 Z M 223.214844 134.871094 C 213.769531 129.484375 202.835938 126.40625 191.191406 126.40625 C 155.433594 126.40625 126.40625 155.433594 126.40625 191.191406 C 126.40625 202.835938 129.484375 213.769531 134.871094 223.214844 C 127.941406 213.03125 123.890625 200.734375 123.890625 187.496094 C 123.890625 152.390625 152.390625 123.890625 187.496094 123.890625 C 200.734375 123.890625 213.03125 127.941406 223.214844 134.871094 Z M 208.84375 157.960938 C 203.578125 155.15625 197.566406 153.566406 191.191406 153.566406 C 170.425781 153.566406 153.566406 170.425781 153.566406 191.191406 C 153.566406 197.566406 155.15625 203.578125 157.960938 208.84375 C 153.617188 202.839844 151.054688 195.464844 151.054688 187.496094 C 151.054688 167.382812 167.382812 151.054688 187.496094 151.054688 C 195.464844 151.054688 202.839844 153.617188 208.84375 157.960938 Z M 196.355469 177.96875 C 194.753906 177.339844 193.011719 176.996094 191.191406 176.996094 C 183.355469 176.996094 176.996094 183.355469 176.996094 191.191406 C 176.996094 193.011719 177.339844 194.753906 177.96875 196.355469 C 175.808594 194.03125 174.484375 190.917969 174.484375 187.496094 C 174.484375 180.316406 180.316406 174.484375 187.496094 174.484375 C 190.917969 174.484375 194.03125 175.808594 196.355469 177.96875 Z M 110.816406 111.996094 C 123.976562 98.835938 136.085938 92.355469 141.488281 90.761719 C 150.5625 88.082031 131.003906 95.445312 113.699219 113.699219 C 93.0625 135.46875 86.460938 152.074219 90.761719 140.308594 C 92.621094 135.21875 103.480469 119.332031 110.816406 111.996094 Z M 110.816406 111.996094 " fill-opacity="1" fill-rule="evenodd"/></svg>