<svg xmlns="http://www.w3.org/2000/svg" xmlns:xlink="http://www.w3.org/1999/xlink" width="2560" zoomAndPan="magnify" viewBox="0 0 1920 824.999997" height="1100" preserveAspectRatio="xMidYMid meet" version="1.0"><defs><g/><clipPath id="140f6bbb9e"><rect x="0" width="1844" y="0" height="430"/></clipPath><clipPath id="3593466568"><path d="M 330 180 L 498 180 L 498 343 L 330 343 Z M 330 180 " clip-rule="nonzero"/></clipPath><clipPath id="156b11a3d3"><path d="M 358.898438 142.714844 L 544.246094 238.203125 L 471.769531 378.882812 L 286.421875 283.390625 Z M 358.898438 142.714844 " clip-rule="nonzero"/></clipPath><clipPath id="9e677ff23e"><path d="M 358.898438 142.714844 L 544.246094 238.203125 L 471.769531 378.882812 L 286.421875 283.390625 Z M 358.898438 142.714844 " clip-rule="nonzero"/></clipPath><clipPath id="1243279e17"><path d="M 358.898438 142.714844 L 544.246094 238.203125 L 471.769531 378.882812 L 286.421875 283.390625 Z M 358.898438 142.714844 " clip-rule="nonzero"/></clipPath><clipPath id="7701a3a321"><path d="M 194 464 L 382 464 L 382 582 L 194 582 Z M 194 464 " clip-rule="nonzero"/></clipPath><clipPath id="97054f6466"><path d="M 208.328125 453.992188 L 389.9375 541.863281 L 364.128906 595.199219 L 182.523438 507.324219 Z M 208.328125 453.992188 " clip-rule="nonzero"/></clipPath><clipPath id="c8a06ffeb1"><path d="M 208.328125 453.992188 L 389.9375 541.863281 L 364.128906 595.199219 L 182.523438 507.324219 Z M 208.328125 453.992188 " clip-rule="nonzero"/></clipPath><clipPath id="3b016df3c2"><path d="M 208.328125 453.992188 L 389.9375 541.863281 L 364.128906 595.199219 L 182.523438 507.324219 Z M 208.328125 453.992188 " clip-rule="nonzero"/></clipPath><clipPath id="e37faf351d"><path d="M 204 477 L 282 477 L 282 501 L 204 501 Z M 204 477 " clip-rule="nonzero"/></clipPath><clipPath id="e319907842"><path d="M 208.328125 453.992188 L 389.9375 541.863281 L 364.128906 595.199219 L 182.523438 507.324219 Z M 208.328125 453.992188 " clip-rule="nonzero"/></clipPath><clipPath id="14723fc65f"><path d="M 208.328125 453.992188 L 389.9375 541.863281 L 364.128906 595.199219 L 182.523438 507.324219 Z M 208.328125 453.992188 " clip-rule="nonzero"/></clipPath><clipPath id="83a26d3e6b"><path d="M 208.328125 453.992188 L 389.9375 541.863281 L 364.128906 595.199219 L 182.523438 507.324219 Z M 208.328125 453.992188 " clip-rule="nonzero"/></clipPath><clipPath id="5adb044ceb"><path d="M 315 505 L 374 505 L 374 566 L 315 566 Z M 315 505 " clip-rule="nonzero"/></clipPath><clipPath id="d8e9251243"><path d="M 208.328125 453.992188 L 389.9375 541.863281 L 364.128906 595.199219 L 182.523438 507.324219 Z M 208.328125 453.992188 " clip-rule="nonzero"/></clipPath><clipPath id="5dd3b09cff"><path d="M 208.328125 453.992188 L 389.9375 541.863281 L 364.128906 595.199219 L 182.523438 507.324219 Z M 208.328125 453.992188 " clip-rule="nonzero"/></clipPath><clipPath id="3a9129b69a"><path d="M 208.328125 453.992188 L 389.9375 541.863281 L 364.128906 595.199219 L 182.523438 507.324219 Z M 208.328125 453.992188 " clip-rule="nonzero"/></clipPath></defs><path fill="#ffbd59" d="M 1725.609375 428.898438 C 1725.609375 426.386719 1725.546875 423.875 1725.425781 421.367188 C 1725.300781 418.859375 1725.117188 416.355469 1724.871094 413.855469 C 1724.625 411.355469 1724.316406 408.863281 1723.949219 406.378906 C 1723.582031 403.898438 1723.152344 401.421875 1722.660156 398.960938 C 1722.171875 396.496094 1721.621094 394.046875 1721.011719 391.609375 C 1720.402344 389.175781 1719.730469 386.753906 1719.003906 384.351562 C 1718.273438 381.949219 1717.484375 379.5625 1716.640625 377.199219 C 1715.792969 374.835938 1714.890625 372.492188 1713.929688 370.171875 C 1712.96875 367.851562 1711.949219 365.554688 1710.875 363.285156 C 1709.800781 361.015625 1708.675781 358.773438 1707.488281 356.558594 C 1706.304688 354.34375 1705.070312 352.160156 1703.777344 350.003906 C 1702.484375 347.851562 1701.144531 345.730469 1699.746094 343.640625 C 1698.351562 341.550781 1696.90625 339.5 1695.410156 337.484375 C 1693.914062 335.464844 1692.371094 333.484375 1690.777344 331.542969 C 1689.183594 329.601562 1687.542969 327.703125 1685.855469 325.839844 C 1684.171875 323.980469 1682.4375 322.164062 1680.664062 320.386719 C 1678.886719 318.609375 1677.070312 316.878906 1675.207031 315.191406 C 1673.347656 313.507812 1671.445312 311.867188 1669.503906 310.273438 C 1667.5625 308.679688 1665.582031 307.136719 1663.566406 305.640625 C 1661.550781 304.144531 1659.496094 302.695312 1657.410156 301.300781 C 1655.320312 299.90625 1653.199219 298.5625 1651.046875 297.273438 C 1648.890625 295.980469 1646.707031 294.742188 1644.492188 293.558594 C 1642.277344 292.375 1640.035156 291.246094 1637.761719 290.171875 C 1635.492188 289.097656 1633.199219 288.082031 1630.878906 287.121094 C 1628.558594 286.160156 1626.214844 285.257812 1623.851562 284.410156 C 1621.484375 283.5625 1619.101562 282.777344 1616.699219 282.046875 C 1614.292969 281.316406 1611.875 280.648438 1609.4375 280.039062 C 1607.003906 279.429688 1604.554688 278.878906 1602.089844 278.386719 C 1599.625 277.898438 1597.152344 277.46875 1594.667969 277.101562 C 1592.183594 276.730469 1589.691406 276.425781 1587.191406 276.179688 C 1584.695312 275.933594 1582.191406 275.746094 1579.679688 275.625 C 1577.171875 275.5 1574.664062 275.4375 1572.152344 275.4375 C 1569.640625 275.4375 1567.128906 275.5 1564.621094 275.625 C 1562.113281 275.746094 1559.609375 275.933594 1557.109375 276.179688 C 1554.609375 276.425781 1552.117188 276.730469 1549.632812 277.101562 C 1547.148438 277.46875 1544.675781 277.898438 1542.214844 278.386719 C 1539.75 278.878906 1537.300781 279.429688 1534.863281 280.039062 C 1532.429688 280.648438 1530.007812 281.316406 1527.605469 282.046875 C 1525.203125 282.777344 1522.816406 283.5625 1520.453125 284.410156 C 1518.089844 285.257812 1515.746094 286.160156 1513.425781 287.121094 C 1511.105469 288.082031 1508.808594 289.097656 1506.539062 290.171875 C 1504.269531 291.246094 1502.027344 292.375 1499.8125 293.558594 C 1497.597656 294.742188 1495.414062 295.980469 1493.257812 297.273438 C 1491.105469 298.5625 1488.984375 299.90625 1486.894531 301.300781 C 1484.804688 302.695312 1482.753906 304.144531 1480.734375 305.640625 C 1478.71875 307.136719 1476.738281 308.679688 1474.796875 310.273438 C 1472.855469 311.867188 1470.957031 313.507812 1469.09375 315.191406 C 1467.234375 316.878906 1465.414062 318.609375 1463.640625 320.386719 C 1461.863281 322.160156 1460.132812 323.980469 1458.445312 325.839844 C 1456.757812 327.703125 1455.121094 329.601562 1453.527344 331.542969 C 1451.933594 333.484375 1450.386719 335.464844 1448.890625 337.484375 C 1447.394531 339.5 1445.949219 341.550781 1444.554688 343.640625 C 1443.160156 345.730469 1441.816406 347.851562 1440.527344 350.003906 C 1439.234375 352.160156 1437.996094 354.34375 1436.8125 356.558594 C 1435.628906 358.773438 1434.5 361.015625 1433.425781 363.285156 C 1432.351562 365.554688 1431.335938 367.851562 1430.375 370.171875 C 1429.414062 372.492188 1428.507812 374.835938 1427.664062 377.199219 C 1426.816406 379.5625 1426.03125 381.949219 1425.300781 384.351562 C 1424.570312 386.753906 1423.902344 389.175781 1423.292969 391.609375 C 1422.679688 394.046875 1422.132812 396.496094 1421.640625 398.960938 C 1421.152344 401.421875 1420.722656 403.898438 1420.355469 406.378906 C 1419.984375 408.863281 1419.679688 411.355469 1419.433594 413.855469 C 1419.1875 416.355469 1419 418.859375 1418.878906 421.367188 C 1418.753906 423.875 1418.691406 426.386719 1418.691406 428.898438 C 1418.691406 431.410156 1418.753906 433.917969 1418.878906 436.429688 C 1419 438.9375 1419.1875 441.441406 1419.433594 443.941406 C 1419.679688 446.4375 1419.984375 448.929688 1420.355469 451.414062 C 1420.722656 453.898438 1421.152344 456.371094 1421.640625 458.835938 C 1422.132812 461.300781 1422.679688 463.75 1423.292969 466.183594 C 1423.902344 468.621094 1424.570312 471.042969 1425.300781 473.445312 C 1426.03125 475.847656 1426.816406 478.230469 1427.664062 480.597656 C 1428.507812 482.960938 1429.414062 485.304688 1430.375 487.625 C 1431.335938 489.945312 1432.351562 492.238281 1433.425781 494.511719 C 1434.5 496.78125 1435.628906 499.023438 1436.8125 501.238281 C 1437.996094 503.453125 1439.234375 505.636719 1440.527344 507.792969 C 1441.816406 509.945312 1443.160156 512.066406 1444.554688 514.15625 C 1445.949219 516.242188 1447.394531 518.296875 1448.890625 520.3125 C 1450.386719 522.332031 1451.933594 524.308594 1453.527344 526.25 C 1455.121094 528.191406 1456.757812 530.09375 1458.445312 531.953125 C 1460.132812 533.816406 1461.863281 535.632812 1463.640625 537.410156 C 1465.414062 539.183594 1467.234375 540.917969 1469.09375 542.601562 C 1470.957031 544.289062 1472.855469 545.929688 1474.796875 547.523438 C 1476.738281 549.117188 1478.71875 550.660156 1480.734375 552.15625 C 1482.753906 553.652344 1484.804688 555.097656 1486.894531 556.492188 C 1488.984375 557.890625 1491.105469 559.234375 1493.257812 560.523438 C 1495.414062 561.816406 1497.597656 563.050781 1499.8125 564.238281 C 1502.027344 565.421875 1504.269531 566.550781 1506.539062 567.621094 C 1508.808594 568.695312 1511.105469 569.714844 1513.425781 570.675781 C 1515.746094 571.636719 1518.089844 572.539062 1520.453125 573.386719 C 1522.816406 574.230469 1525.203125 575.019531 1527.605469 575.75 C 1530.007812 576.476562 1532.429688 577.148438 1534.863281 577.757812 C 1537.300781 578.367188 1539.75 578.917969 1542.214844 579.40625 C 1544.675781 579.898438 1547.148438 580.328125 1549.632812 580.695312 C 1552.117188 581.0625 1554.609375 581.371094 1557.109375 581.617188 C 1559.609375 581.863281 1562.113281 582.046875 1564.621094 582.171875 C 1567.128906 582.296875 1569.640625 582.355469 1572.152344 582.355469 C 1574.664062 582.355469 1577.171875 582.296875 1579.679688 582.171875 C 1582.191406 582.046875 1584.695312 581.863281 1587.191406 581.617188 C 1589.691406 581.371094 1592.183594 581.0625 1594.667969 580.695312 C 1597.152344 580.328125 1599.625 579.898438 1602.089844 579.40625 C 1604.554688 578.917969 1607.003906 578.367188 1609.4375 577.757812 C 1611.875 577.148438 1614.292969 576.476562 1616.699219 575.75 C 1619.101562 575.019531 1621.484375 574.230469 1623.851562 573.386719 C 1626.214844 572.539062 1628.558594 571.636719 1630.878906 570.675781 C 1633.199219 569.714844 1635.492188 568.695312 1637.761719 567.621094 C 1640.035156 566.550781 1642.277344 565.421875 1644.492188 564.238281 C 1646.707031 563.050781 1648.890625 561.816406 1651.046875 560.523438 C 1653.199219 559.234375 1655.320312 557.890625 1657.410156 556.492188 C 1659.496094 555.097656 1661.550781 553.652344 1663.566406 552.15625 C 1665.582031 550.660156 1667.5625 549.117188 1669.503906 547.523438 C 1671.445312 545.929688 1673.347656 544.289062 1675.207031 542.601562 C 1677.070312 540.917969 1678.886719 539.183594 1680.664062 537.410156 C 1682.4375 535.632812 1684.171875 533.816406 1685.855469 531.953125 C 1687.542969 530.09375 1689.183594 528.191406 1690.777344 526.25 C 1692.371094 524.308594 1693.914062 522.332031 1695.410156 520.3125 C 1696.90625 518.296875 1698.351562 516.242188 1699.746094 514.15625 C 1701.144531 512.066406 1702.484375 509.945312 1703.777344 507.792969 C 1705.070312 505.636719 1706.304688 503.453125 1707.488281 501.238281 C 1708.675781 499.023438 1709.800781 496.78125 1710.875 494.511719 C 1711.949219 492.238281 1712.96875 489.945312 1713.929688 487.625 C 1714.890625 485.304688 1715.792969 482.960938 1716.640625 480.597656 C 1717.484375 478.230469 1718.273438 475.847656 1719.003906 473.445312 C 1719.730469 471.042969 1720.402344 468.621094 1721.011719 466.183594 C 1721.621094 463.75 1722.171875 461.300781 1722.660156 458.835938 C 1723.152344 456.371094 1723.582031 453.898438 1723.949219 451.414062 C 1724.316406 448.929688 1724.625 446.4375 1724.871094 443.941406 C 1725.117188 441.441406 1725.300781 438.9375 1725.425781 436.429688 C 1725.546875 433.917969 1725.609375 431.410156 1725.609375 428.898438 Z M 1725.609375 428.898438 " fill-opacity="1" fill-rule="nonzero"/><path fill="#ff751f" d="M 1674.859375 326.191406 C 1673.175781 324.511719 1671.457031 322.871094 1669.695312 321.277344 C 1667.933594 319.679688 1666.132812 318.128906 1664.296875 316.621094 C 1662.457031 315.113281 1660.585938 313.648438 1658.675781 312.234375 C 1656.765625 310.816406 1654.824219 309.449219 1652.847656 308.128906 C 1650.871094 306.808594 1648.863281 305.535156 1646.824219 304.316406 C 1644.785156 303.09375 1642.71875 301.921875 1640.621094 300.800781 C 1638.523438 299.679688 1636.402344 298.613281 1634.253906 297.59375 C 1632.105469 296.578125 1629.933594 295.617188 1627.734375 294.707031 C 1625.539062 293.796875 1623.324219 292.941406 1621.085938 292.140625 C 1618.847656 291.339844 1616.589844 290.59375 1614.316406 289.902344 C 1612.039062 289.214844 1609.75 288.582031 1607.445312 288.003906 C 1605.136719 287.425781 1602.820312 286.90625 1600.488281 286.441406 C 1598.15625 285.976562 1595.816406 285.570312 1593.464844 285.222656 C 1591.113281 284.875 1588.753906 284.582031 1586.386719 284.347656 C 1584.023438 284.117188 1581.652344 283.941406 1579.277344 283.824219 C 1576.90625 283.707031 1574.527344 283.648438 1572.152344 283.648438 C 1569.773438 283.648438 1567.398438 283.707031 1565.023438 283.824219 C 1562.648438 283.941406 1560.28125 284.117188 1557.914062 284.347656 C 1555.550781 284.582031 1553.191406 284.875 1550.839844 285.222656 C 1548.488281 285.570312 1546.144531 285.976562 1543.816406 286.441406 C 1541.484375 286.90625 1539.164062 287.425781 1536.859375 288.003906 C 1534.554688 288.582031 1532.261719 289.214844 1529.988281 289.902344 C 1527.714844 290.59375 1525.457031 291.339844 1523.21875 292.140625 C 1520.980469 292.941406 1518.761719 293.796875 1516.566406 294.707031 C 1514.371094 295.617188 1512.199219 296.578125 1510.050781 297.59375 C 1507.902344 298.613281 1505.777344 299.679688 1503.683594 300.800781 C 1501.585938 301.921875 1499.519531 303.09375 1497.480469 304.316406 C 1495.441406 305.535156 1493.433594 306.808594 1491.457031 308.128906 C 1489.480469 309.449219 1487.535156 310.816406 1485.628906 312.234375 C 1483.71875 313.648438 1481.84375 315.113281 1480.007812 316.621094 C 1478.167969 318.128906 1476.371094 319.679688 1474.609375 321.277344 C 1472.847656 322.871094 1471.125 324.511719 1469.445312 326.191406 C 1467.765625 327.871094 1466.125 329.59375 1464.53125 331.355469 C 1462.933594 333.117188 1461.382812 334.917969 1459.871094 336.753906 C 1458.363281 338.589844 1456.902344 340.464844 1455.488281 342.375 C 1454.070312 344.285156 1452.703125 346.226562 1451.382812 348.203125 C 1450.0625 350.179688 1448.789062 352.1875 1447.566406 354.226562 C 1446.34375 356.265625 1445.175781 358.332031 1444.054688 360.429688 C 1442.933594 362.523438 1441.863281 364.648438 1440.847656 366.796875 C 1439.832031 368.945312 1438.867188 371.117188 1437.960938 373.3125 C 1437.050781 375.511719 1436.195312 377.726562 1435.394531 379.964844 C 1434.59375 382.203125 1433.847656 384.460938 1433.15625 386.734375 C 1432.46875 389.007812 1431.832031 391.300781 1431.257812 393.605469 C 1430.679688 395.910156 1430.15625 398.230469 1429.695312 400.5625 C 1429.230469 402.894531 1428.824219 405.234375 1428.476562 407.585938 C 1428.125 409.9375 1427.835938 412.296875 1427.601562 414.660156 C 1427.371094 417.027344 1427.195312 419.398438 1427.078125 421.769531 C 1426.960938 424.144531 1426.902344 426.519531 1426.902344 428.898438 C 1426.902344 431.277344 1426.960938 433.652344 1427.078125 436.027344 C 1427.195312 438.398438 1427.371094 440.769531 1427.601562 443.136719 C 1427.835938 445.5 1428.125 447.859375 1428.476562 450.210938 C 1428.824219 452.5625 1429.230469 454.902344 1429.695312 457.234375 C 1430.15625 459.566406 1430.679688 461.886719 1431.257812 464.191406 C 1431.832031 466.496094 1432.46875 468.785156 1433.15625 471.0625 C 1433.847656 473.335938 1434.59375 475.59375 1435.394531 477.832031 C 1436.195312 480.070312 1437.050781 482.285156 1437.960938 484.484375 C 1438.867188 486.679688 1439.832031 488.851562 1440.847656 491 C 1441.863281 493.148438 1442.933594 495.273438 1444.054688 497.367188 C 1445.175781 499.464844 1446.34375 501.53125 1447.566406 503.570312 C 1448.789062 505.609375 1450.0625 507.617188 1451.382812 509.59375 C 1452.703125 511.570312 1454.070312 513.511719 1455.488281 515.421875 C 1456.902344 517.332031 1458.363281 519.207031 1459.871094 521.042969 C 1461.382812 522.878906 1462.933594 524.679688 1464.53125 526.441406 C 1466.125 528.203125 1467.765625 529.921875 1469.445312 531.605469 C 1471.125 533.285156 1472.847656 534.925781 1474.609375 536.519531 C 1476.371094 538.117188 1478.167969 539.667969 1480.007812 541.175781 C 1481.84375 542.683594 1483.71875 544.148438 1485.628906 545.5625 C 1487.535156 546.980469 1489.480469 548.347656 1491.457031 549.667969 C 1493.433594 550.988281 1495.441406 552.261719 1497.480469 553.480469 C 1499.519531 554.703125 1501.585938 555.875 1503.683594 556.996094 C 1505.777344 558.117188 1507.902344 559.183594 1510.050781 560.203125 C 1512.199219 561.21875 1514.371094 562.179688 1516.566406 563.089844 C 1518.761719 564 1520.980469 564.855469 1523.21875 565.65625 C 1525.457031 566.457031 1527.714844 567.203125 1529.988281 567.890625 C 1532.261719 568.582031 1534.554688 569.214844 1536.859375 569.792969 C 1539.164062 570.371094 1541.484375 570.890625 1543.816406 571.355469 C 1546.144531 571.820312 1548.488281 572.226562 1550.839844 572.574219 C 1553.191406 572.921875 1555.550781 573.214844 1557.914062 573.449219 C 1560.28125 573.679688 1562.648438 573.855469 1565.023438 573.972656 C 1567.398438 574.089844 1569.773438 574.148438 1572.152344 574.148438 C 1574.527344 574.148438 1576.90625 574.089844 1579.277344 573.972656 C 1581.652344 573.855469 1584.023438 573.679688 1586.386719 573.449219 C 1588.753906 573.214844 1591.113281 572.921875 1593.464844 572.574219 C 1595.816406 572.226562 1598.15625 571.820312 1600.488281 571.355469 C 1602.820312 570.890625 1605.136719 570.371094 1607.445312 569.792969 C 1609.75 569.214844 1612.039062 568.582031 1614.316406 567.890625 C 1616.589844 567.203125 1618.847656 566.457031 1621.085938 565.65625 C 1623.324219 564.855469 1625.539062 564 1627.734375 563.089844 C 1629.933594 562.179688 1632.105469 561.21875 1634.253906 560.203125 C 1636.402344 559.183594 1638.523438 558.117188 1640.621094 556.996094 C 1642.71875 555.875 1644.785156 554.703125 1646.824219 553.480469 C 1648.863281 552.261719 1650.871094 550.988281 1652.847656 549.667969 C 1654.824219 548.347656 1656.765625 546.980469 1658.675781 545.5625 C 1660.585938 544.148438 1662.457031 542.683594 1664.296875 541.175781 C 1666.132812 539.667969 1667.933594 538.117188 1669.695312 536.519531 C 1671.457031 534.925781 1673.175781 533.285156 1674.859375 531.605469 C 1676.539062 529.921875 1678.175781 528.203125 1679.773438 526.441406 C 1681.371094 524.679688 1682.921875 522.878906 1684.429688 521.042969 C 1685.9375 519.207031 1687.398438 517.332031 1688.816406 515.421875 C 1690.230469 513.511719 1691.601562 511.570312 1692.921875 509.59375 C 1694.242188 507.617188 1695.511719 505.609375 1696.734375 503.570312 C 1697.957031 501.53125 1699.128906 499.464844 1700.25 497.367188 C 1701.371094 495.273438 1702.4375 493.148438 1703.453125 491 C 1704.472656 488.851562 1705.433594 486.679688 1706.34375 484.484375 C 1707.253906 482.285156 1708.109375 480.070312 1708.910156 477.832031 C 1709.710938 475.59375 1710.457031 473.335938 1711.144531 471.0625 C 1711.835938 468.785156 1712.46875 466.496094 1713.046875 464.191406 C 1713.625 461.886719 1714.144531 459.566406 1714.609375 457.234375 C 1715.074219 454.902344 1715.480469 452.5625 1715.828125 450.210938 C 1716.175781 447.859375 1716.46875 445.5 1716.699219 443.136719 C 1716.933594 440.769531 1717.109375 438.398438 1717.226562 436.027344 C 1717.339844 433.652344 1717.398438 431.277344 1717.398438 428.898438 C 1717.398438 426.519531 1717.339844 424.144531 1717.226562 421.769531 C 1717.109375 419.398438 1716.933594 417.027344 1716.699219 414.660156 C 1716.46875 412.296875 1716.175781 409.9375 1715.828125 407.585938 C 1715.480469 405.234375 1715.074219 402.894531 1714.609375 400.5625 C 1714.144531 398.230469 1713.625 395.910156 1713.046875 393.605469 C 1712.46875 391.300781 1711.835938 389.007812 1711.144531 386.734375 C 1710.457031 384.460938 1709.710938 382.203125 1708.910156 379.964844 C 1708.109375 377.726562 1707.253906 375.511719 1706.34375 373.3125 C 1705.433594 371.117188 1704.472656 368.945312 1703.453125 366.796875 C 1702.4375 364.648438 1701.371094 362.523438 1700.25 360.429688 C 1699.128906 358.332031 1697.957031 356.265625 1696.734375 354.226562 C 1695.511719 352.1875 1694.242188 350.179688 1692.921875 348.203125 C 1691.601562 346.226562 1690.230469 344.285156 1688.816406 342.375 C 1687.398438 340.464844 1685.9375 338.589844 1684.429688 336.753906 C 1682.921875 334.917969 1681.371094 333.117188 1679.773438 331.355469 C 1678.175781 329.59375 1676.539062 327.871094 1674.859375 326.191406 Z M 1674.859375 326.191406 " fill-opacity="1" fill-rule="nonzero"/><path fill="#ffbd59" d="M 1572.152344 582.355469 C 1487.457031 582.355469 1418.691406 513.59375 1418.691406 428.898438 C 1418.691406 344.199219 1487.457031 275.441406 1572.152344 275.441406 C 1656.847656 275.441406 1725.609375 344.199219 1725.609375 428.898438 C 1725.609375 513.59375 1656.847656 582.355469 1572.152344 582.355469 Z M 1674.855469 531.605469 C 1731.542969 474.917969 1731.542969 382.875 1674.855469 326.191406 C 1618.171875 269.507812 1526.128906 269.507812 1469.445312 326.191406 C 1412.761719 382.875 1412.761719 474.917969 1469.445312 531.605469 C 1526.128906 588.289062 1618.171875 588.289062 1674.855469 531.605469 Z M 1572.152344 309 C 1638.324219 309 1692.050781 362.722656 1692.050781 428.898438 C 1692.050781 495.070312 1638.324219 548.796875 1572.152344 548.796875 C 1505.976562 548.796875 1452.253906 495.070312 1452.253906 428.898438 C 1452.253906 362.722656 1505.976562 309 1572.152344 309 Z M 1572.152344 313.601562 C 1508.519531 313.601562 1456.855469 365.265625 1456.855469 428.898438 C 1456.855469 492.53125 1508.519531 544.191406 1572.152344 544.191406 C 1635.785156 544.191406 1687.449219 492.53125 1687.449219 428.898438 C 1687.449219 365.265625 1635.785156 313.601562 1572.152344 313.601562 Z M 1572.152344 338.867188 C 1621.839844 338.867188 1662.179688 379.207031 1662.179688 428.898438 C 1662.179688 478.585938 1621.839844 518.925781 1572.152344 518.925781 C 1522.460938 518.925781 1482.121094 478.585938 1482.121094 428.898438 C 1482.121094 379.207031 1522.460938 338.867188 1572.152344 338.867188 Z M 1572.152344 343.472656 C 1525.003906 343.472656 1486.726562 381.75 1486.726562 428.898438 C 1486.726562 476.046875 1525.003906 514.324219 1572.152344 514.324219 C 1619.300781 514.324219 1657.578125 476.046875 1657.578125 428.898438 C 1657.578125 381.75 1619.300781 343.472656 1572.152344 343.472656 Z M 1572.152344 374.203125 C 1602.339844 374.203125 1626.847656 398.710938 1626.847656 428.898438 C 1626.847656 459.085938 1602.339844 483.59375 1572.152344 483.59375 C 1541.964844 483.59375 1517.457031 459.085938 1517.457031 428.898438 C 1517.457031 398.710938 1541.964844 374.203125 1572.152344 374.203125 Z M 1572.152344 378.804688 C 1544.503906 378.804688 1522.058594 401.25 1522.058594 428.898438 C 1522.058594 456.542969 1544.503906 478.992188 1572.152344 478.992188 C 1599.796875 478.992188 1622.246094 456.542969 1622.246094 428.898438 C 1622.246094 401.25 1599.796875 378.804688 1572.152344 378.804688 Z M 1572.152344 404.679688 C 1585.515625 404.679688 1596.367188 415.53125 1596.367188 428.898438 C 1596.367188 442.261719 1585.515625 453.113281 1572.152344 453.113281 C 1558.785156 453.113281 1547.933594 442.261719 1547.933594 428.898438 C 1547.933594 415.53125 1558.785156 404.679688 1572.152344 404.679688 Z M 1572.152344 409.285156 C 1561.328125 409.285156 1552.539062 418.074219 1552.539062 428.898438 C 1552.539062 439.722656 1561.328125 448.511719 1572.152344 448.511719 C 1582.976562 448.511719 1591.765625 439.722656 1591.765625 428.898438 C 1591.765625 418.074219 1582.976562 409.285156 1572.152344 409.285156 Z M 1572.152344 409.285156 " fill-opacity="1" fill-rule="evenodd"/><path fill="#cc3333" d="M 1597.074219 311.597656 C 1655.8125 321.21875 1700.691406 372.261719 1700.691406 433.703125 C 1700.691406 501.992188 1645.246094 557.4375 1576.957031 557.4375 C 1515.515625 557.4375 1464.472656 512.558594 1454.851562 453.824219 C 1466.335938 508.050781 1514.523438 548.796875 1572.152344 548.796875 C 1638.324219 548.796875 1692.050781 495.074219 1692.050781 428.898438 C 1692.050781 371.269531 1651.304688 323.082031 1597.074219 311.597656 Z M 1591.539062 340.964844 C 1636.429688 347.980469 1670.824219 386.855469 1670.824219 433.703125 C 1670.824219 485.507812 1628.761719 527.570312 1576.957031 527.570312 C 1530.109375 527.570312 1491.230469 493.175781 1484.21875 448.285156 C 1493.09375 488.667969 1529.117188 518.925781 1572.152344 518.925781 C 1621.839844 518.925781 1662.183594 478.585938 1662.183594 428.898438 C 1662.183594 385.863281 1631.921875 349.839844 1591.539062 340.964844 Z M 1584.972656 375.714844 C 1613.492188 379.628906 1635.488281 404.117188 1635.488281 433.703125 C 1635.488281 466.007812 1609.261719 492.238281 1576.957031 492.238281 C 1547.371094 492.238281 1522.882812 470.238281 1518.96875 441.71875 C 1524.746094 465.730469 1546.378906 483.59375 1572.152344 483.59375 C 1602.339844 483.59375 1626.847656 459.085938 1626.847656 428.898438 C 1626.847656 403.125 1608.984375 381.492188 1584.972656 375.714844 Z M 1579.257812 405.742188 C 1593.667969 406.914062 1605.011719 418.996094 1605.011719 433.703125 C 1605.011719 449.1875 1592.441406 461.757812 1576.957031 461.757812 C 1562.25 461.757812 1550.167969 450.414062 1548.996094 436.007812 C 1552.035156 445.90625 1561.257812 453.117188 1572.152344 453.117188 C 1585.515625 453.117188 1596.367188 442.265625 1596.367188 428.898438 C 1596.367188 418.003906 1589.160156 408.78125 1579.257812 405.742188 Z M 1579.257812 405.742188 " fill-opacity="1" fill-rule="evenodd"/><path fill="#f35151" d="M 1634.402344 335.070312 C 1617.527344 325.210938 1597.894531 319.558594 1576.957031 319.558594 C 1513.957031 319.558594 1462.8125 370.707031 1462.8125 433.703125 C 1462.8125 454.644531 1468.464844 474.273438 1478.320312 491.152344 C 1466.457031 473.3125 1459.542969 451.90625 1459.542969 428.898438 C 1459.542969 366.746094 1510 316.289062 1572.152344 316.289062 C 1595.160156 316.289062 1616.566406 323.203125 1634.402344 335.070312 Z M 1618.613281 360.441406 C 1606.324219 353.433594 1592.105469 349.429688 1576.957031 349.429688 C 1530.445312 349.429688 1492.679688 387.191406 1492.679688 433.703125 C 1492.679688 448.851562 1496.6875 463.070312 1503.695312 475.363281 C 1494.679688 462.113281 1489.410156 446.117188 1489.410156 428.898438 C 1489.410156 383.234375 1526.484375 346.15625 1572.152344 346.15625 C 1589.371094 346.15625 1605.367188 351.429688 1618.613281 360.441406 Z M 1599.917969 390.480469 C 1593.070312 386.828125 1585.253906 384.761719 1576.957031 384.761719 C 1549.945312 384.761719 1528.015625 406.691406 1528.015625 433.703125 C 1528.015625 442 1530.082031 449.816406 1533.734375 456.664062 C 1528.078125 448.859375 1524.746094 439.265625 1524.746094 428.898438 C 1524.746094 402.734375 1545.988281 381.492188 1572.152344 381.492188 C 1582.519531 381.492188 1592.113281 384.824219 1599.917969 390.480469 Z M 1583.675781 416.503906 C 1581.59375 415.6875 1579.328125 415.242188 1576.957031 415.242188 C 1566.765625 415.242188 1558.492188 423.511719 1558.492188 433.703125 C 1558.492188 436.074219 1558.941406 438.339844 1559.757812 440.421875 C 1556.945312 437.402344 1555.222656 433.347656 1555.222656 428.898438 C 1555.222656 419.554688 1562.808594 411.96875 1572.152344 411.96875 C 1576.601562 411.96875 1580.652344 413.691406 1583.675781 416.503906 Z M 1472.402344 330.683594 C 1489.519531 313.566406 1505.277344 305.136719 1512.300781 303.0625 C 1524.105469 299.578125 1498.667969 309.15625 1476.15625 332.902344 C 1449.3125 361.21875 1440.722656 382.820312 1446.316406 367.515625 C 1448.734375 360.894531 1462.863281 340.226562 1472.402344 330.683594 Z M 1472.402344 330.683594 " fill-opacity="1" fill-rule="evenodd"/><g transform="matrix(1, 0, 0, 1, 63, 227)"><g clip-path="url(#140f6bbb9e)"><g fill="#ff751f" fill-opacity="1"><g transform="translate(0.356929, 350.628825)"><g><path d="M 36.34375 0.40625 C 42.53125 -29.207031 48.453125 -58.421875 54.109375 -87.234375 C 56.535156 -99.347656 58.957031 -112 61.375 -125.1875 C 63.800781 -138.375 66.15625 -151.363281 68.4375 -164.15625 C 70.726562 -176.945312 72.75 -189.332031 74.5 -201.3125 C 76.25 -213.289062 77.800781 -224.257812 79.15625 -234.21875 C 72.957031 -235.03125 66.691406 -235.300781 60.359375 -235.03125 C 54.035156 -234.757812 47.78125 -235.566406 41.59375 -237.453125 C 41.863281 -241.753906 42 -246.734375 42 -252.390625 C 42 -258.046875 42.132812 -263.703125 42.40625 -269.359375 C 42.675781 -275.546875 42.941406 -282.140625 43.203125 -289.140625 C 50.203125 -288.597656 57.203125 -288.191406 64.203125 -287.921875 C 71.203125 -287.660156 78.203125 -287.53125 85.203125 -287.53125 C 98.929688 -287.53125 112.191406 -287.863281 124.984375 -288.53125 C 137.773438 -289.207031 149.617188 -290.015625 160.515625 -290.953125 C 171.421875 -291.898438 182.125 -293.046875 192.625 -294.390625 L 188.1875 -272.578125 C 186.84375 -266.390625 185.5625 -260.0625 184.34375 -253.59375 C 183.132812 -247.132812 181.992188 -241.617188 180.921875 -237.046875 C 174.992188 -235.429688 169 -234.285156 162.9375 -233.609375 C 156.882812 -232.941406 150.894531 -232.066406 144.96875 -230.984375 C 143.082031 -221.835938 141.0625 -211.675781 138.90625 -200.5 C 136.757812 -189.320312 134.675781 -177.742188 132.65625 -165.765625 C 130.632812 -153.785156 128.679688 -141.601562 126.796875 -129.21875 C 124.910156 -116.84375 123.03125 -105 121.15625 -93.6875 C 116.84375 -67.03125 112.800781 -39.4375 109.03125 -10.90625 Z M 36.34375 0.40625 "/></g></g></g><g fill="#ff751f" fill-opacity="1"><g transform="translate(146.523488, 350.628825)"><g><path d="M 226.140625 -218.46875 C 226.140625 -196.394531 223.785156 -175.597656 219.078125 -156.078125 C 214.367188 -136.554688 208.109375 -118.648438 200.296875 -102.359375 C 192.492188 -86.078125 183.410156 -71.539062 173.046875 -58.75 C 162.679688 -45.96875 151.84375 -35.066406 140.53125 -26.046875 C 129.226562 -17.023438 117.785156 -10.160156 106.203125 -5.453125 C 94.628906 -0.742188 83.59375 1.609375 73.09375 1.609375 C 64.207031 1.609375 56.128906 -0.0703125 48.859375 -3.4375 C 41.585938 -6.800781 35.257812 -11.78125 29.875 -18.375 C 24.5 -24.96875 20.257812 -33.445312 17.15625 -43.8125 C 14.0625 -54.175781 12.515625 -66.628906 12.515625 -81.171875 C 12.515625 -96.242188 14.398438 -112.125 18.171875 -128.8125 C 21.941406 -145.507812 27.054688 -162.066406 33.515625 -178.484375 C 39.972656 -194.910156 47.914062 -210.523438 57.34375 -225.328125 C 66.769531 -240.140625 77.132812 -253.265625 88.4375 -264.703125 C 99.75 -276.148438 111.863281 -285.238281 124.78125 -291.96875 C 137.707031 -298.695312 151.171875 -302.0625 165.171875 -302.0625 C 177.285156 -302.0625 187.3125 -299.570312 195.25 -294.59375 C 203.1875 -289.613281 209.375 -283.148438 213.8125 -275.203125 C 218.257812 -267.265625 221.425781 -258.3125 223.3125 -248.34375 C 225.195312 -238.382812 226.140625 -228.425781 226.140625 -218.46875 Z M 72.6875 -91.671875 C 72.6875 -88.710938 73.222656 -85.613281 74.296875 -82.375 C 75.378906 -79.144531 76.863281 -76.316406 78.75 -73.890625 C 80.632812 -71.472656 82.988281 -69.390625 85.8125 -67.640625 C 88.632812 -65.890625 91.664062 -65.015625 94.90625 -65.015625 C 107.019531 -65.015625 117.785156 -69.1875 127.203125 -77.53125 C 136.628906 -85.875 144.4375 -96.101562 150.625 -108.21875 C 156.820312 -120.332031 161.601562 -133.253906 164.96875 -146.984375 C 168.332031 -160.722656 170.015625 -173.242188 170.015625 -184.546875 C 170.015625 -187.773438 169.8125 -191.273438 169.40625 -195.046875 C 169 -198.816406 168.191406 -202.316406 166.984375 -205.546875 C 165.773438 -208.773438 163.890625 -211.535156 161.328125 -213.828125 C 158.773438 -216.117188 155.34375 -217.265625 151.03125 -217.265625 C 142.414062 -217.265625 134.472656 -215.109375 127.203125 -210.796875 C 119.929688 -206.492188 113.398438 -200.773438 107.609375 -193.640625 C 101.828125 -186.503906 96.78125 -178.425781 92.46875 -169.40625 C 88.164062 -160.382812 84.46875 -151.226562 81.375 -141.9375 C 78.28125 -132.65625 76.054688 -123.570312 74.703125 -114.6875 C 73.359375 -105.800781 72.6875 -98.128906 72.6875 -91.671875 Z M 72.6875 -91.671875 "/></g></g></g><g fill="#ff751f" fill-opacity="1"><g transform="translate(345.584592, 350.628825)"><g><path d="M -1.21875 0.40625 C 6.863281 -35.9375 14.539062 -71.472656 21.8125 -106.203125 C 24.769531 -120.742188 27.863281 -136.085938 31.09375 -152.234375 C 34.320312 -168.390625 37.414062 -184.273438 40.375 -199.890625 C 43.34375 -215.503906 46.171875 -230.582031 48.859375 -245.125 C 51.554688 -259.664062 53.847656 -272.992188 55.734375 -285.109375 C 63.535156 -287.523438 71.203125 -289.609375 78.734375 -291.359375 C 86.273438 -293.109375 94.015625 -294.65625 101.953125 -296 C 109.898438 -297.351562 117.375 -298.03125 124.375 -298.03125 C 136.488281 -298.03125 146.648438 -296.007812 154.859375 -291.96875 C 163.078125 -287.925781 169.742188 -282.472656 174.859375 -275.609375 C 179.972656 -268.742188 183.601562 -260.734375 185.75 -251.578125 C 187.90625 -242.429688 188.984375 -232.609375 188.984375 -222.109375 C 188.984375 -207.023438 186.222656 -192.484375 180.703125 -178.484375 C 175.191406 -164.492188 167.789062 -152.046875 158.5 -141.140625 C 149.21875 -130.234375 138.582031 -121.550781 126.59375 -115.09375 C 114.613281 -108.632812 102.164062 -105.40625 89.25 -105.40625 L 84.796875 -105.40625 C 82.648438 -96.25 80.632812 -86.285156 78.75 -75.515625 C 76.863281 -64.742188 75.25 -54.78125 73.90625 -45.625 C 72.019531 -34.863281 70.269531 -24.097656 68.65625 -13.328125 Z M 111.453125 -249.15625 C 108.492188 -231.394531 105.53125 -214.570312 102.5625 -198.6875 C 99.601562 -182.800781 96.375 -165.835938 92.875 -147.796875 C 97.1875 -148.878906 101.695312 -151.367188 106.40625 -155.265625 C 111.113281 -159.171875 115.488281 -164.285156 119.53125 -170.609375 C 123.570312 -176.941406 126.800781 -184.28125 129.21875 -192.625 C 131.644531 -200.96875 132.859375 -209.71875 132.859375 -218.875 C 132.859375 -228.832031 130.632812 -236.367188 126.1875 -241.484375 C 121.75 -246.597656 116.835938 -249.15625 111.453125 -249.15625 Z M 111.453125 -249.15625 "/></g></g></g><g fill="#000000" fill-opacity="1"><g transform="translate(498.654551, 350.628825)"><g><path d="M 219.6875 -153.859375 C 217.800781 -126.398438 212.414062 -102.503906 203.53125 -82.171875 C 194.644531 -61.847656 183.941406 -44.820312 171.421875 -31.09375 C 158.898438 -17.363281 145.4375 -7.132812 131.03125 -0.40625 C 116.632812 6.320312 102.972656 9.6875 90.046875 9.6875 C 80.085938 9.6875 70.597656 7.53125 61.578125 3.21875 C 52.566406 -1.082031 44.757812 -7.609375 38.15625 -16.359375 C 31.5625 -25.109375 26.378906 -36.078125 22.609375 -49.265625 C 18.835938 -62.453125 16.953125 -77.929688 16.953125 -95.703125 C 16.953125 -130.429688 21.929688 -160.71875 31.890625 -186.5625 C 41.859375 -212.414062 54.445312 -233.957031 69.65625 -251.1875 C 84.875 -268.414062 101.164062 -281.203125 118.53125 -289.546875 C 135.894531 -297.890625 152.113281 -302.0625 167.1875 -302.0625 C 177.957031 -302.0625 187.3125 -300.175781 195.25 -296.40625 C 203.1875 -292.632812 209.710938 -287.585938 214.828125 -281.265625 C 219.953125 -274.941406 223.65625 -267.535156 225.9375 -259.046875 C 228.226562 -250.566406 229.375 -241.617188 229.375 -232.203125 L 174.046875 -221.703125 C 171.628906 -232.472656 168.398438 -240.144531 164.359375 -244.71875 C 160.316406 -249.289062 155.738281 -251.578125 150.625 -251.578125 C 143.894531 -251.578125 136.488281 -246.796875 128.40625 -237.234375 C 120.332031 -227.679688 112.796875 -215.367188 105.796875 -200.296875 C 98.796875 -185.222656 92.875 -168.664062 88.03125 -150.625 C 83.1875 -132.59375 80.492188 -114.828125 79.953125 -97.328125 C 79.953125 -80.628906 82.441406 -68.710938 87.421875 -61.578125 C 92.410156 -54.441406 98.804688 -50.875 106.609375 -50.875 C 111.992188 -50.875 117.578125 -52.21875 123.359375 -54.90625 C 129.148438 -57.601562 134.332031 -61.441406 138.90625 -66.421875 C 143.488281 -71.410156 147.328125 -77.203125 150.421875 -83.796875 C 153.515625 -90.390625 155.195312 -97.59375 155.46875 -105.40625 L 112.265625 -98.9375 L 119.9375 -138.921875 C 132.59375 -140.535156 144.976562 -142.148438 157.09375 -143.765625 C 167.320312 -145.109375 178.15625 -146.722656 189.59375 -148.609375 C 201.039062 -150.492188 211.070312 -152.242188 219.6875 -153.859375 Z M 219.6875 -153.859375 "/></g></g></g><g fill="#000000" fill-opacity="1"><g transform="translate(700.138329, 350.628825)"><g><path d="M 148.609375 -8.078125 C 141.878906 -7.003906 134.472656 -5.789062 126.390625 -4.4375 C 118.316406 -3.09375 111.050781 -1.882812 104.59375 -0.8125 C 105.664062 -9.695312 106.742188 -18.445312 107.828125 -27.0625 C 108.628906 -34.59375 109.363281 -42.128906 110.03125 -49.671875 C 110.707031 -57.210938 111.316406 -63.671875 111.859375 -69.046875 L 76.734375 -69.046875 L 60.578125 -10.90625 C 54.648438 -10.09375 47.644531 -9.210938 39.5625 -8.265625 C 31.488281 -7.328125 23.953125 -6.457031 16.953125 -5.65625 C 8.335938 -4.570312 -0.140625 -3.492188 -8.484375 -2.421875 C 2.285156 -38.222656 12.921875 -73.488281 23.421875 -108.21875 C 27.734375 -122.757812 32.242188 -137.972656 36.953125 -153.859375 C 41.660156 -169.742188 46.367188 -185.5625 51.078125 -201.3125 C 55.796875 -217.0625 60.304688 -232.203125 64.609375 -246.734375 C 68.921875 -261.273438 72.691406 -274.601562 75.921875 -286.71875 C 94.222656 -288.0625 112.863281 -289.675781 131.84375 -291.5625 C 150.820312 -293.445312 169.332031 -296.003906 187.375 -299.234375 C 186.570312 -290.617188 185.695312 -279.914062 184.75 -267.125 C 183.8125 -254.34375 182.9375 -240.410156 182.125 -225.328125 C 181.320312 -210.253906 180.515625 -194.503906 179.703125 -178.078125 C 178.890625 -161.660156 178.082031 -145.507812 177.28125 -129.625 C 175.9375 -92.476562 174.457031 -53.039062 172.84375 -11.3125 C 164.757812 -9.957031 156.679688 -8.878906 148.609375 -8.078125 Z M 86.421875 -109.4375 C 87.492188 -109.4375 89.441406 -109.503906 92.265625 -109.640625 C 95.097656 -109.773438 98.0625 -109.910156 101.15625 -110.046875 C 104.25 -110.179688 107.140625 -110.316406 109.828125 -110.453125 C 112.523438 -110.585938 114.414062 -110.785156 115.5 -111.046875 C 115.5 -112.660156 115.695312 -115.421875 116.09375 -119.328125 C 116.5 -123.234375 116.90625 -127.675781 117.3125 -132.65625 C 117.71875 -137.632812 118.1875 -143.082031 118.71875 -149 C 119.257812 -154.925781 119.800781 -160.71875 120.34375 -166.375 C 121.414062 -180.101562 122.757812 -194.910156 124.375 -210.796875 L 126.796875 -245.9375 L 120.75 -245.53125 L 111.453125 -210.796875 Z M 86.421875 -109.4375 "/></g></g></g><g fill="#000000" fill-opacity="1"><g transform="translate(874.972976, 350.628825)"><g><path d="M -12.109375 -2.421875 C -0.265625 -38.222656 11.039062 -73.359375 21.8125 -107.828125 C 26.382812 -122.359375 31.09375 -137.566406 35.9375 -153.453125 C 40.78125 -169.335938 45.625 -185.085938 50.46875 -200.703125 C 55.320312 -216.316406 59.832031 -231.390625 64 -245.921875 C 68.175781 -260.460938 71.878906 -273.925781 75.109375 -286.3125 C 89.921875 -286.3125 103.921875 -287.117188 117.109375 -288.734375 C 130.296875 -290.347656 144.566406 -291.828125 159.921875 -293.171875 C 159.109375 -287.253906 158.226562 -280.59375 157.28125 -273.1875 C 156.34375 -265.78125 155.269531 -258.039062 154.0625 -249.96875 C 152.851562 -241.894531 151.570312 -233.550781 150.21875 -224.9375 C 148.875 -216.320312 147.257812 -205.28125 145.375 -191.8125 C 143.488281 -178.351562 140.929688 -161.53125 137.703125 -141.34375 L 142.953125 -141.34375 C 150.765625 -161.800781 157.226562 -178.828125 162.34375 -192.421875 C 167.457031 -206.015625 171.628906 -217.117188 174.859375 -225.734375 C 178.085938 -234.347656 181.382812 -242.757812 184.75 -250.96875 C 188.113281 -259.1875 191.34375 -266.992188 194.4375 -274.390625 C 197.539062 -281.796875 200.4375 -288.328125 203.125 -293.984375 C 209.851562 -294.523438 216.175781 -295.195312 222.09375 -296 C 228.019531 -296.8125 233.945312 -297.6875 239.875 -298.625 C 245.800781 -299.570312 251.789062 -300.515625 257.84375 -301.453125 C 263.90625 -302.398438 270.566406 -303.546875 277.828125 -304.890625 C 275.140625 -289.273438 272.582031 -273.253906 270.15625 -256.828125 C 267.738281 -240.410156 265.585938 -224.054688 263.703125 -207.765625 C 261.816406 -191.484375 260 -175.398438 258.25 -159.515625 C 256.5 -143.628906 254.953125 -128.550781 253.609375 -114.28125 C 250.378906 -80.894531 247.550781 -48.320312 245.125 -16.5625 L 174.859375 -4.03125 C 174.859375 -5.382812 175.054688 -9.019531 175.453125 -14.9375 C 175.859375 -20.863281 176.398438 -28.132812 177.078125 -36.75 C 177.753906 -45.363281 178.695312 -54.921875 179.90625 -65.421875 C 181.113281 -75.921875 182.320312 -86.421875 183.53125 -96.921875 C 184.75 -107.421875 186.03125 -117.582031 187.375 -127.40625 C 188.71875 -137.226562 190.066406 -145.640625 191.421875 -152.640625 L 187.78125 -152.640625 C 184.007812 -141.335938 179.832031 -129.425781 175.25 -116.90625 C 170.675781 -104.382812 166.035156 -91.660156 161.328125 -78.734375 C 156.617188 -65.816406 151.972656 -53.164062 147.390625 -40.78125 C 142.816406 -28.394531 138.78125 -16.550781 135.28125 -5.25 C 125.863281 -4.976562 117.785156 -4.640625 111.046875 -4.234375 C 104.316406 -3.835938 96.507812 -3.367188 87.625 -2.828125 L 100.546875 -152.640625 L 94.5 -152.640625 C 93.957031 -149.140625 92.609375 -143.285156 90.453125 -135.078125 C 88.304688 -126.867188 85.816406 -117.445312 82.984375 -106.8125 C 80.160156 -96.175781 77.128906 -85.132812 73.890625 -73.6875 C 70.660156 -62.25 67.632812 -51.617188 64.8125 -41.796875 C 61.988281 -31.972656 59.632812 -23.894531 57.75 -17.5625 C 55.863281 -11.238281 54.785156 -7.671875 54.515625 -6.859375 Z M -12.109375 -2.421875 "/></g></g></g><g fill="#000000" fill-opacity="1"><g transform="translate(1124.909765, 350.628825)"><g><path d="M -12.109375 -2.421875 C -0.265625 -38.222656 11.039062 -73.359375 21.8125 -107.828125 C 26.382812 -122.359375 31.09375 -137.566406 35.9375 -153.453125 C 40.78125 -169.335938 45.625 -185.085938 50.46875 -200.703125 C 55.320312 -216.316406 59.832031 -231.390625 64 -245.921875 C 68.175781 -260.460938 71.878906 -273.925781 75.109375 -286.3125 C 89.921875 -286.3125 103.921875 -287.117188 117.109375 -288.734375 C 130.296875 -290.347656 144.566406 -291.828125 159.921875 -293.171875 C 159.109375 -287.253906 158.226562 -280.59375 157.28125 -273.1875 C 156.34375 -265.78125 155.269531 -258.039062 154.0625 -249.96875 C 152.851562 -241.894531 151.570312 -233.550781 150.21875 -224.9375 C 148.875 -216.320312 147.257812 -205.28125 145.375 -191.8125 C 143.488281 -178.351562 140.929688 -161.53125 137.703125 -141.34375 L 142.953125 -141.34375 C 150.765625 -161.800781 157.226562 -178.828125 162.34375 -192.421875 C 167.457031 -206.015625 171.628906 -217.117188 174.859375 -225.734375 C 178.085938 -234.347656 181.382812 -242.757812 184.75 -250.96875 C 188.113281 -259.1875 191.34375 -266.992188 194.4375 -274.390625 C 197.539062 -281.796875 200.4375 -288.328125 203.125 -293.984375 C 209.851562 -294.523438 216.175781 -295.195312 222.09375 -296 C 228.019531 -296.8125 233.945312 -297.6875 239.875 -298.625 C 245.800781 -299.570312 251.789062 -300.515625 257.84375 -301.453125 C 263.90625 -302.398438 270.566406 -303.546875 277.828125 -304.890625 C 275.140625 -289.273438 272.582031 -273.253906 270.15625 -256.828125 C 267.738281 -240.410156 265.585938 -224.054688 263.703125 -207.765625 C 261.816406 -191.484375 260 -175.398438 258.25 -159.515625 C 256.5 -143.628906 254.953125 -128.550781 253.609375 -114.28125 C 250.378906 -80.894531 247.550781 -48.320312 245.125 -16.5625 L 174.859375 -4.03125 C 174.859375 -5.382812 175.054688 -9.019531 175.453125 -14.9375 C 175.859375 -20.863281 176.398438 -28.132812 177.078125 -36.75 C 177.753906 -45.363281 178.695312 -54.921875 179.90625 -65.421875 C 181.113281 -75.921875 182.320312 -86.421875 183.53125 -96.921875 C 184.75 -107.421875 186.03125 -117.582031 187.375 -127.40625 C 188.71875 -137.226562 190.066406 -145.640625 191.421875 -152.640625 L 187.78125 -152.640625 C 184.007812 -141.335938 179.832031 -129.425781 175.25 -116.90625 C 170.675781 -104.382812 166.035156 -91.660156 161.328125 -78.734375 C 156.617188 -65.816406 151.972656 -53.164062 147.390625 -40.78125 C 142.816406 -28.394531 138.78125 -16.550781 135.28125 -5.25 C 125.863281 -4.976562 117.785156 -4.640625 111.046875 -4.234375 C 104.316406 -3.835938 96.507812 -3.367188 87.625 -2.828125 L 100.546875 -152.640625 L 94.5 -152.640625 C 93.957031 -149.140625 92.609375 -143.285156 90.453125 -135.078125 C 88.304688 -126.867188 85.816406 -117.445312 82.984375 -106.8125 C 80.160156 -96.175781 77.128906 -85.132812 73.890625 -73.6875 C 70.660156 -62.25 67.632812 -51.617188 64.8125 -41.796875 C 61.988281 -31.972656 59.632812 -23.894531 57.75 -17.5625 C 55.863281 -11.238281 54.785156 -7.671875 54.515625 -6.859375 Z M -12.109375 -2.421875 "/></g></g></g><g fill="#000000" fill-opacity="1"><g transform="translate(1374.853867, 350.628825)"><g/></g></g><g fill="#000000" fill-opacity="1"><g transform="translate(1453.59002, 350.628825)"><g/></g></g><g fill="#000000" fill-opacity="1"><g transform="translate(1532.326173, 350.628825)"><g/></g></g><g fill="#000000" fill-opacity="1"><g transform="translate(1611.113228, 350.628825)"><g><path d="M 2.015625 2.015625 C 10.097656 -36.742188 17.769531 -74.300781 25.03125 -110.65625 C 27.726562 -126.269531 30.625 -142.421875 33.71875 -159.109375 C 36.8125 -175.796875 39.703125 -192.285156 42.390625 -208.578125 C 45.085938 -224.867188 47.515625 -240.484375 49.671875 -255.421875 C 51.828125 -270.359375 53.441406 -283.882812 54.515625 -296 C 58.015625 -295.738281 60.972656 -295.609375 63.390625 -295.609375 C 65.816406 -295.609375 68.644531 -295.609375 71.875 -295.609375 C 75.644531 -295.609375 80.222656 -295.671875 85.609375 -295.796875 C 90.992188 -295.929688 96.378906 -296.132812 101.765625 -296.40625 C 107.148438 -296.675781 112.9375 -296.945312 119.125 -297.21875 C 122.894531 -278.375 126.257812 -260.203125 129.21875 -242.703125 C 132.1875 -227.359375 135.21875 -211.609375 138.3125 -195.453125 C 141.40625 -179.296875 144.164062 -165.566406 146.59375 -154.265625 C 147.664062 -159.648438 148.875 -165.90625 150.21875 -173.03125 C 151.570312 -180.164062 153.054688 -187.632812 154.671875 -195.4375 C 156.285156 -203.25 157.832031 -211.125 159.3125 -219.0625 C 160.789062 -227.007812 162.335938 -234.890625 163.953125 -242.703125 C 167.722656 -260.203125 171.628906 -278.238281 175.671875 -296.8125 L 224.9375 -302.875 C 215.78125 -261.675781 207.703125 -222.640625 200.703125 -185.765625 C 197.472656 -169.878906 194.304688 -153.789062 191.203125 -137.5 C 188.109375 -121.21875 185.210938 -105.601562 182.515625 -90.65625 C 179.828125 -75.71875 177.539062 -61.851562 175.65625 -49.0625 C 173.78125 -36.28125 172.300781 -25.578125 171.21875 -16.953125 C 170.414062 -16.953125 167.253906 -16.347656 161.734375 -15.140625 C 156.210938 -13.929688 149.882812 -12.519531 142.75 -10.90625 C 135.613281 -9.289062 128.476562 -7.675781 121.34375 -6.0625 C 114.21875 -4.445312 108.90625 -2.960938 105.40625 -1.609375 C 103.78125 -23.148438 102.03125 -43.613281 100.15625 -63 C 99.34375 -71.34375 98.460938 -79.890625 97.515625 -88.640625 C 96.578125 -97.390625 95.566406 -105.800781 94.484375 -113.875 C 93.410156 -121.957031 92.335938 -129.5 91.265625 -136.5 C 90.191406 -143.5 89.113281 -149.554688 88.03125 -154.671875 C 87.226562 -149.554688 86.148438 -143.628906 84.796875 -136.890625 C 83.453125 -130.160156 82.109375 -123.023438 80.765625 -115.484375 C 79.421875 -107.953125 78.070312 -100.078125 76.71875 -91.859375 C 75.375 -83.648438 73.894531 -75.78125 72.28125 -68.25 C 68.78125 -50.207031 65.015625 -31.363281 60.984375 -11.71875 Z M 2.015625 2.015625 "/></g></g></g></g></g><g clip-path="url(#3593466568)"><g clip-path="url(#156b11a3d3)"><g clip-path="url(#9e677ff23e)"><g clip-path="url(#1243279e17)"><path fill="#000000" d="M 441.867188 316.3125 C 440.910156 316.234375 439.949219 316.15625 439 316.0625 C 439.746094 314.617188 440.335938 313.46875 440.8125 312.546875 C 469.113281 259.835938 497.074219 237.5 497.074219 237.5 C 480.160156 205.28125 423.449219 175.976562 387.261719 180.921875 C 387.261719 180.921875 385.308594 216.660156 358.804688 270.320312 C 358.355469 271.191406 357.789062 272.289062 357.097656 273.636719 C 356.597656 273.070312 356.109375 272.484375 355.605469 271.890625 C 316.460938 225.082031 322.226562 301.828125 379.550781 331.363281 C 436.527344 360.714844 501.613281 320.949219 441.867188 316.3125 Z M 441.867188 316.3125 " fill-opacity="1" fill-rule="nonzero"/></g></g></g></g><g clip-path="url(#7701a3a321)"><g clip-path="url(#97054f6466)"><g clip-path="url(#c8a06ffeb1)"><g clip-path="url(#3b016df3c2)"><path fill="#1a1a1a" d="M 379.621094 545.125 C 376.414062 572.691406 348.820312 567.171875 337.238281 535.460938 C 332.808594 523.332031 321.273438 500.496094 303.441406 504.460938 C 296.949219 505.898438 296.101562 509.730469 291.214844 513.609375 C 294.976562 501.480469 291.042969 491.238281 276.097656 487.726562 C 253.125 482.335938 233.382812 502.472656 214.136719 491.535156 C 200.976562 484.0625 202.785156 473.480469 211.992188 464.015625 C 207.519531 464.398438 201.933594 467.730469 197.996094 475.375 C 176.527344 517.082031 260.589844 556.496094 287.238281 521.378906 L 287.078125 530.632812 C 288.105469 552.203125 309.859375 571.859375 330.0625 577.871094 C 378.144531 592.183594 386.640625 553.402344 379.621094 545.125 Z M 379.621094 545.125 " fill-opacity="1" fill-rule="evenodd"/></g></g></g></g><g clip-path="url(#e37faf351d)"><g clip-path="url(#e319907842)"><g clip-path="url(#14723fc65f)"><g clip-path="url(#83a26d3e6b)"><path fill="#333333" d="M 276.097656 487.726562 C 253.125 482.335938 233.382812 502.472656 214.136719 491.535156 C 207.242188 487.613281 204.449219 482.84375 204.691406 477.820312 C 203.414062 484.992188 206.496094 491.769531 215.761719 497.085938 C 236.113281 508.757812 257.621094 490.484375 281.398438 489.4375 C 279.8125 488.761719 278.058594 488.183594 276.097656 487.726562 Z M 276.097656 487.726562 " fill-opacity="1" fill-rule="evenodd"/></g></g></g></g><g clip-path="url(#5adb044ceb)"><g clip-path="url(#d8e9251243)"><g clip-path="url(#5dd3b09cff)"><g clip-path="url(#3a9129b69a)"><path fill="#333333" d="M 327.945312 531.046875 C 338.40625 562.539062 361.386719 573.304688 373.273438 559.703125 C 363.613281 568.292969 345.921875 559.230469 337.238281 535.460938 C 333.90625 526.34375 326.550781 511.160156 315.527344 505.875 C 321.457031 514.023438 325.589844 523.957031 327.945312 531.046875 Z M 327.945312 531.046875 " fill-opacity="1" fill-rule="evenodd"/></g></g></g></g></svg>