<svg xmlns="http://www.w3.org/2000/svg" xmlns:xlink="http://www.w3.org/1999/xlink" width="500" zoomAndPan="magnify" viewBox="0 0 375 374.999991" height="500" preserveAspectRatio="xMidYMid meet" version="1.0"><defs><clipPath id="1d57078072"><path d="M 136 69 L 277 69 L 277 206 L 136 206 Z M 136 69 " clip-rule="nonzero"/></clipPath><clipPath id="19532472b7"><path d="M 160.257812 38.117188 L 315.605469 118.152344 L 254.804688 236.160156 L 99.460938 156.128906 Z M 160.257812 38.117188 " clip-rule="nonzero"/></clipPath><clipPath id="4ca64461b8"><path d="M 160.257812 38.117188 L 315.605469 118.152344 L 254.804688 236.160156 L 99.460938 156.128906 Z M 160.257812 38.117188 " clip-rule="nonzero"/></clipPath><clipPath id="a47277bcfb"><path d="M 160.257812 38.117188 L 315.605469 118.152344 L 254.804688 236.160156 L 99.460938 156.128906 Z M 160.257812 38.117188 " clip-rule="nonzero"/></clipPath></defs><path fill="#ffbd59" d="M 242.46875 232.082031 C 242.46875 230.800781 242.433594 229.519531 242.371094 228.238281 C 242.308594 226.960938 242.214844 225.683594 242.089844 224.40625 C 241.964844 223.132812 241.808594 221.859375 241.621094 220.59375 C 241.429688 219.324219 241.210938 218.0625 240.960938 216.808594 C 240.710938 215.550781 240.433594 214.300781 240.121094 213.058594 C 239.808594 211.816406 239.46875 210.582031 239.097656 209.355469 C 238.722656 208.128906 238.320312 206.914062 237.890625 205.707031 C 237.457031 204.5 236.996094 203.304688 236.507812 202.121094 C 236.015625 200.9375 235.5 199.765625 234.949219 198.609375 C 234.402344 197.449219 233.828125 196.304688 233.222656 195.175781 C 232.617188 194.046875 231.988281 192.929688 231.328125 191.832031 C 230.667969 190.734375 229.984375 189.652344 229.273438 188.585938 C 228.5625 187.519531 227.824219 186.472656 227.058594 185.445312 C 226.296875 184.414062 225.507812 183.40625 224.695312 182.414062 C 223.882812 181.425781 223.046875 180.453125 222.1875 179.503906 C 221.324219 178.554688 220.441406 177.628906 219.535156 176.722656 C 218.628906 175.816406 217.703125 174.933594 216.753906 174.070312 C 215.804688 173.210938 214.835938 172.375 213.84375 171.5625 C 212.851562 170.75 211.84375 169.960938 210.8125 169.199219 C 209.785156 168.433594 208.738281 167.695312 207.671875 166.984375 C 206.605469 166.273438 205.523438 165.589844 204.425781 164.929688 C 203.328125 164.269531 202.210938 163.640625 201.082031 163.035156 C 199.953125 162.429688 198.808594 161.855469 197.648438 161.308594 C 196.492188 160.761719 195.320312 160.242188 194.136719 159.75 C 192.953125 159.261719 191.757812 158.800781 190.550781 158.367188 C 189.347656 157.9375 188.128906 157.535156 186.902344 157.160156 C 185.675781 156.789062 184.441406 156.449219 183.199219 156.136719 C 181.957031 155.824219 180.707031 155.546875 179.449219 155.296875 C 178.195312 155.046875 176.933594 154.828125 175.664062 154.636719 C 174.398438 154.449219 173.125 154.292969 171.851562 154.167969 C 170.574219 154.042969 169.296875 153.949219 168.019531 153.886719 C 166.738281 153.824219 165.457031 153.789062 164.175781 153.789062 C 162.894531 153.789062 161.617188 153.824219 160.335938 153.886719 C 159.054688 153.949219 157.777344 154.042969 156.503906 154.167969 C 155.226562 154.292969 153.957031 154.449219 152.691406 154.636719 C 151.421875 154.828125 150.160156 155.046875 148.902344 155.296875 C 147.648438 155.546875 146.398438 155.824219 145.152344 156.136719 C 143.910156 156.449219 142.675781 156.789062 141.449219 157.164062 C 140.222656 157.535156 139.007812 157.9375 137.800781 158.367188 C 136.59375 158.800781 135.402344 159.261719 134.21875 159.75 C 133.03125 160.242188 131.863281 160.761719 130.703125 161.308594 C 129.546875 161.855469 128.402344 162.429688 127.269531 163.035156 C 126.140625 163.640625 125.027344 164.269531 123.929688 164.929688 C 122.828125 165.589844 121.746094 166.273438 120.679688 166.984375 C 119.617188 167.695312 118.570312 168.433594 117.539062 169.199219 C 116.511719 169.960938 115.5 170.75 114.511719 171.5625 C 113.519531 172.375 112.550781 173.210938 111.601562 174.070312 C 110.652344 174.933594 109.722656 175.816406 108.816406 176.722656 C 107.910156 177.628906 107.027344 178.554688 106.167969 179.503906 C 105.308594 180.453125 104.472656 181.425781 103.65625 182.414062 C 102.84375 183.40625 102.058594 184.414062 101.292969 185.445312 C 100.53125 186.472656 99.792969 187.519531 99.082031 188.585938 C 98.371094 189.652344 97.683594 190.734375 97.027344 191.832031 C 96.367188 192.929688 95.734375 194.046875 95.132812 195.175781 C 94.527344 196.304688 93.953125 197.449219 93.402344 198.609375 C 92.855469 199.765625 92.335938 200.9375 91.847656 202.121094 C 91.355469 203.304688 90.894531 204.5 90.464844 205.707031 C 90.03125 206.914062 89.628906 208.128906 89.257812 209.355469 C 88.886719 210.582031 88.542969 211.816406 88.234375 213.058594 C 87.921875 214.300781 87.640625 215.550781 87.390625 216.808594 C 87.140625 218.0625 86.921875 219.324219 86.734375 220.59375 C 86.546875 221.859375 86.390625 223.132812 86.265625 224.40625 C 86.136719 225.683594 86.042969 226.960938 85.980469 228.238281 C 85.917969 229.519531 85.886719 230.800781 85.886719 232.082031 C 85.886719 233.363281 85.917969 234.644531 85.980469 235.921875 C 86.042969 237.203125 86.136719 238.480469 86.265625 239.753906 C 86.390625 241.03125 86.546875 242.300781 86.734375 243.566406 C 86.921875 244.835938 87.140625 246.097656 87.390625 247.355469 C 87.640625 248.609375 87.921875 249.859375 88.234375 251.105469 C 88.542969 252.347656 88.886719 253.582031 89.257812 254.808594 C 89.628906 256.035156 90.03125 257.25 90.464844 258.457031 C 90.894531 259.664062 91.355469 260.855469 91.847656 262.042969 C 92.335938 263.226562 92.855469 264.394531 93.402344 265.554688 C 93.953125 266.710938 94.527344 267.855469 95.132812 268.988281 C 95.734375 270.117188 96.367188 271.230469 97.027344 272.328125 C 97.683594 273.429688 98.371094 274.511719 99.082031 275.578125 C 99.792969 276.640625 100.53125 277.6875 101.292969 278.71875 C 102.058594 279.746094 102.84375 280.757812 103.65625 281.746094 C 104.472656 282.738281 105.308594 283.707031 106.167969 284.65625 C 107.027344 285.605469 107.910156 286.535156 108.816406 287.441406 C 109.722656 288.347656 110.652344 289.230469 111.601562 290.089844 C 112.550781 290.949219 113.519531 291.785156 114.511719 292.601562 C 115.5 293.414062 116.511719 294.199219 117.539062 294.964844 C 118.570312 295.726562 119.617188 296.464844 120.679688 297.175781 C 121.746094 297.886719 122.828125 298.574219 123.929688 299.230469 C 125.027344 299.890625 126.140625 300.523438 127.269531 301.125 C 128.402344 301.730469 129.546875 302.304688 130.703125 302.855469 C 131.863281 303.402344 133.03125 303.921875 134.21875 304.410156 C 135.402344 304.902344 136.59375 305.363281 137.800781 305.792969 C 139.007812 306.226562 140.222656 306.628906 141.449219 307 C 142.675781 307.371094 143.910156 307.714844 145.152344 308.023438 C 146.398438 308.335938 147.648438 308.617188 148.902344 308.867188 C 150.160156 309.117188 151.421875 309.335938 152.691406 309.523438 C 153.957031 309.710938 155.226562 309.867188 156.503906 309.992188 C 157.777344 310.121094 159.054688 310.214844 160.335938 310.277344 C 161.617188 310.339844 162.894531 310.371094 164.175781 310.371094 C 165.457031 310.371094 166.738281 310.339844 168.019531 310.277344 C 169.296875 310.214844 170.574219 310.121094 171.851562 309.992188 C 173.125 309.867188 174.398438 309.710938 175.664062 309.523438 C 176.933594 309.335938 178.195312 309.117188 179.449219 308.867188 C 180.707031 308.617188 181.957031 308.335938 183.199219 308.023438 C 184.441406 307.714844 185.675781 307.371094 186.902344 307 C 188.128906 306.628906 189.347656 306.226562 190.550781 305.792969 C 191.757812 305.363281 192.953125 304.902344 194.136719 304.410156 C 195.320312 303.921875 196.492188 303.402344 197.648438 302.855469 C 198.808594 302.304688 199.953125 301.730469 201.082031 301.125 C 202.210938 300.523438 203.328125 299.890625 204.425781 299.230469 C 205.523438 298.574219 206.605469 297.886719 207.671875 297.175781 C 208.738281 296.464844 209.785156 295.726562 210.8125 294.964844 C 211.84375 294.199219 212.851562 293.414062 213.84375 292.601562 C 214.835938 291.785156 215.804688 290.949219 216.753906 290.089844 C 217.703125 289.230469 218.628906 288.347656 219.535156 287.441406 C 220.441406 286.535156 221.324219 285.605469 222.1875 284.65625 C 223.046875 283.707031 223.882812 282.738281 224.695312 281.746094 C 225.507812 280.757812 226.296875 279.746094 227.058594 278.71875 C 227.824219 277.6875 228.5625 276.640625 229.273438 275.578125 C 229.984375 274.511719 230.667969 273.429688 231.328125 272.328125 C 231.988281 271.230469 232.617188 270.117188 233.222656 268.988281 C 233.828125 267.855469 234.402344 266.710938 234.949219 265.554688 C 235.5 264.394531 236.015625 263.226562 236.507812 262.042969 C 236.996094 260.855469 237.457031 259.664062 237.890625 258.457031 C 238.320312 257.25 238.722656 256.035156 239.097656 254.808594 C 239.46875 253.582031 239.808594 252.347656 240.121094 251.105469 C 240.433594 249.859375 240.710938 248.609375 240.960938 247.355469 C 241.210938 246.097656 241.429688 244.835938 241.621094 243.566406 C 241.808594 242.300781 241.964844 241.03125 242.089844 239.753906 C 242.214844 238.480469 242.308594 237.203125 242.371094 235.921875 C 242.433594 234.644531 242.46875 233.363281 242.46875 232.082031 Z M 242.46875 232.082031 " fill-opacity="1" fill-rule="nonzero"/><path fill="#ff751f" d="M 216.574219 179.683594 C 215.71875 178.824219 214.839844 177.988281 213.941406 177.175781 C 213.042969 176.359375 212.125 175.570312 211.1875 174.800781 C 210.25 174.03125 209.292969 173.285156 208.320312 172.5625 C 207.34375 171.839844 206.355469 171.140625 205.34375 170.46875 C 204.335938 169.792969 203.3125 169.144531 202.273438 168.523438 C 201.234375 167.898438 200.175781 167.300781 199.109375 166.730469 C 198.039062 166.15625 196.957031 165.613281 195.859375 165.09375 C 194.761719 164.574219 193.65625 164.085938 192.535156 163.621094 C 191.414062 163.15625 190.28125 162.71875 189.140625 162.3125 C 188 161.902344 186.847656 161.523438 185.6875 161.171875 C 184.527344 160.820312 183.359375 160.496094 182.183594 160.199219 C 181.003906 159.90625 179.824219 159.640625 178.632812 159.402344 C 177.445312 159.167969 176.25 158.960938 175.050781 158.78125 C 173.851562 158.605469 172.648438 158.457031 171.441406 158.335938 C 170.234375 158.21875 169.023438 158.128906 167.8125 158.070312 C 166.601562 158.007812 165.390625 157.980469 164.175781 157.980469 C 162.964844 157.980469 161.753906 158.007812 160.542969 158.070312 C 159.328125 158.128906 158.121094 158.21875 156.914062 158.335938 C 155.707031 158.457031 154.503906 158.605469 153.304688 158.78125 C 152.105469 158.960938 150.910156 159.167969 149.71875 159.402344 C 148.53125 159.640625 147.347656 159.90625 146.171875 160.199219 C 144.996094 160.496094 143.828125 160.820312 142.667969 161.171875 C 141.507812 161.523438 140.355469 161.902344 139.214844 162.3125 C 138.070312 162.71875 136.941406 163.15625 135.820312 163.621094 C 134.699219 164.085938 133.589844 164.574219 132.496094 165.09375 C 131.398438 165.613281 130.316406 166.15625 129.246094 166.730469 C 128.175781 167.300781 127.121094 167.898438 126.082031 168.523438 C 125.042969 169.144531 124.015625 169.792969 123.007812 170.46875 C 122 171.140625 121.007812 171.839844 120.035156 172.5625 C 119.0625 173.285156 118.105469 174.03125 117.167969 174.800781 C 116.230469 175.570312 115.3125 176.359375 114.414062 177.175781 C 113.515625 177.988281 112.636719 178.824219 111.78125 179.683594 C 110.921875 180.542969 110.085938 181.417969 109.273438 182.316406 C 108.457031 183.214844 107.664062 184.132812 106.894531 185.070312 C 106.125 186.007812 105.378906 186.964844 104.660156 187.9375 C 103.9375 188.914062 103.238281 189.902344 102.5625 190.914062 C 101.890625 191.921875 101.242188 192.945312 100.617188 193.984375 C 99.996094 195.027344 99.398438 196.082031 98.824219 197.148438 C 98.253906 198.21875 97.707031 199.300781 97.191406 200.398438 C 96.671875 201.496094 96.179688 202.601562 95.714844 203.722656 C 95.253906 204.84375 94.816406 205.976562 94.40625 207.117188 C 94 208.257812 93.617188 209.410156 93.265625 210.570312 C 92.914062 211.730469 92.589844 212.898438 92.296875 214.074219 C 92 215.253906 91.734375 216.433594 91.5 217.625 C 91.261719 218.8125 91.054688 220.007812 90.878906 221.207031 C 90.699219 222.40625 90.550781 223.609375 90.433594 224.816406 C 90.3125 226.023438 90.222656 227.234375 90.164062 228.445312 C 90.105469 229.65625 90.074219 230.867188 90.074219 232.082031 C 90.074219 233.292969 90.105469 234.503906 90.164062 235.71875 C 90.222656 236.929688 90.3125 238.136719 90.433594 239.34375 C 90.550781 240.550781 90.699219 241.753906 90.878906 242.953125 C 91.054688 244.152344 91.261719 245.347656 91.5 246.539062 C 91.734375 247.726562 92 248.910156 92.296875 250.085938 C 92.589844 251.261719 92.914062 252.429688 93.265625 253.589844 C 93.617188 254.753906 94 255.902344 94.40625 257.046875 C 94.816406 258.1875 95.253906 259.316406 95.714844 260.4375 C 96.179688 261.558594 96.671875 262.667969 97.191406 263.761719 C 97.707031 264.859375 98.253906 265.941406 98.824219 267.011719 C 99.398438 268.082031 99.996094 269.136719 100.617188 270.175781 C 101.242188 271.21875 101.890625 272.242188 102.5625 273.25 C 103.238281 274.257812 103.9375 275.25 104.660156 276.222656 C 105.378906 277.195312 106.125 278.152344 106.894531 279.089844 C 107.664062 280.027344 108.457031 280.945312 109.273438 281.84375 C 110.085938 282.742188 110.921875 283.621094 111.78125 284.480469 C 112.636719 285.335938 113.515625 286.171875 114.414062 286.988281 C 115.3125 287.800781 116.230469 288.59375 117.167969 289.363281 C 118.105469 290.132812 119.0625 290.878906 120.035156 291.601562 C 121.007812 292.320312 122 293.019531 123.007812 293.695312 C 124.015625 294.367188 125.042969 295.015625 126.082031 295.640625 C 127.121094 296.261719 128.175781 296.859375 129.246094 297.433594 C 130.316406 298.003906 131.398438 298.550781 132.496094 299.066406 C 133.589844 299.585938 134.699219 300.078125 135.820312 300.542969 C 136.941406 301.003906 138.070312 301.441406 139.214844 301.851562 C 140.355469 302.257812 141.507812 302.640625 142.667969 302.992188 C 143.828125 303.34375 144.996094 303.667969 146.171875 303.960938 C 147.347656 304.257812 148.53125 304.523438 149.71875 304.757812 C 150.910156 304.996094 152.105469 305.203125 153.304688 305.378906 C 154.503906 305.558594 155.707031 305.707031 156.914062 305.824219 C 158.121094 305.945312 159.328125 306.035156 160.542969 306.09375 C 161.753906 306.152344 162.964844 306.183594 164.175781 306.183594 C 165.390625 306.183594 166.601562 306.152344 167.8125 306.09375 C 169.023438 306.035156 170.234375 305.945312 171.441406 305.824219 C 172.648438 305.707031 173.851562 305.558594 175.050781 305.378906 C 176.25 305.203125 177.445312 304.996094 178.632812 304.757812 C 179.824219 304.523438 181.003906 304.257812 182.183594 303.960938 C 183.359375 303.667969 184.527344 303.34375 185.6875 302.992188 C 186.847656 302.640625 188 302.257812 189.140625 301.851562 C 190.28125 301.441406 191.414062 301.003906 192.535156 300.542969 C 193.65625 300.078125 194.761719 299.585938 195.859375 299.066406 C 196.957031 298.550781 198.039062 298.003906 199.109375 297.433594 C 200.175781 296.859375 201.234375 296.261719 202.273438 295.640625 C 203.3125 295.015625 204.335938 294.367188 205.34375 293.695312 C 206.355469 293.019531 207.34375 292.320312 208.320312 291.601562 C 209.292969 290.878906 210.25 290.132812 211.1875 289.363281 C 212.125 288.59375 213.042969 287.800781 213.941406 286.988281 C 214.839844 286.171875 215.71875 285.335938 216.574219 284.480469 C 217.433594 283.621094 218.269531 282.742188 219.082031 281.84375 C 219.898438 280.945312 220.6875 280.027344 221.457031 279.089844 C 222.226562 278.152344 222.972656 277.195312 223.695312 276.222656 C 224.417969 275.25 225.117188 274.257812 225.789062 273.25 C 226.464844 272.242188 227.113281 271.21875 227.734375 270.175781 C 228.359375 269.136719 228.957031 268.082031 229.527344 267.011719 C 230.101562 265.941406 230.644531 264.859375 231.164062 263.761719 C 231.683594 262.667969 232.171875 261.558594 232.636719 260.4375 C 233.101562 259.316406 233.539062 258.1875 233.945312 257.046875 C 234.355469 255.902344 234.734375 254.753906 235.085938 253.589844 C 235.441406 252.429688 235.761719 251.261719 236.058594 250.085938 C 236.351562 248.910156 236.617188 247.726562 236.855469 246.539062 C 237.089844 245.347656 237.296875 244.152344 237.476562 242.953125 C 237.652344 241.753906 237.800781 240.550781 237.921875 239.34375 C 238.039062 238.136719 238.128906 236.929688 238.1875 235.71875 C 238.25 234.503906 238.277344 233.292969 238.277344 232.082031 C 238.277344 230.867188 238.25 229.65625 238.1875 228.445312 C 238.128906 227.234375 238.039062 226.023438 237.921875 224.816406 C 237.800781 223.609375 237.652344 222.40625 237.476562 221.207031 C 237.296875 220.007812 237.089844 218.8125 236.855469 217.625 C 236.617188 216.433594 236.351562 215.253906 236.058594 214.074219 C 235.761719 212.898438 235.441406 211.730469 235.085938 210.570312 C 234.734375 209.410156 234.355469 208.257812 233.945312 207.117188 C 233.539062 205.976562 233.101562 204.84375 232.636719 203.722656 C 232.171875 202.601562 231.683594 201.496094 231.164062 200.398438 C 230.644531 199.300781 230.101562 198.21875 229.527344 197.148438 C 228.957031 196.082031 228.359375 195.027344 227.734375 193.984375 C 227.113281 192.945312 226.464844 191.921875 225.789062 190.914062 C 225.117188 189.902344 224.417969 188.914062 223.695312 187.9375 C 222.972656 186.964844 222.226562 186.007812 221.457031 185.070312 C 220.6875 184.132812 219.898438 183.214844 219.082031 182.316406 C 218.269531 181.417969 217.433594 180.542969 216.574219 179.683594 Z M 216.574219 179.683594 " fill-opacity="1" fill-rule="nonzero"/><path fill="#ffbd59" d="M 164.175781 310.371094 C 120.96875 310.371094 85.886719 275.289062 85.886719 232.082031 C 85.886719 188.871094 120.96875 153.792969 164.175781 153.792969 C 207.386719 153.792969 242.46875 188.871094 242.46875 232.082031 C 242.46875 275.289062 207.386719 310.371094 164.175781 310.371094 Z M 216.574219 284.476562 C 245.492188 255.558594 245.492188 208.601562 216.574219 179.683594 C 187.65625 150.765625 140.699219 150.765625 111.78125 179.683594 C 82.859375 208.601562 82.859375 255.558594 111.78125 284.476562 C 140.699219 313.398438 187.65625 313.398438 216.574219 284.476562 Z M 164.175781 170.914062 C 197.9375 170.914062 225.347656 198.320312 225.347656 232.082031 C 225.347656 265.839844 197.9375 293.25 164.175781 293.25 C 130.417969 293.25 103.007812 265.839844 103.007812 232.082031 C 103.007812 198.320312 130.417969 170.914062 164.175781 170.914062 Z M 164.175781 173.261719 C 131.714844 173.261719 105.355469 199.617188 105.355469 232.082031 C 105.355469 264.542969 131.714844 290.902344 164.175781 290.902344 C 196.640625 290.902344 222.996094 264.542969 222.996094 232.082031 C 222.996094 199.617188 196.640625 173.261719 164.175781 173.261719 Z M 164.175781 186.152344 C 189.527344 186.152344 210.109375 206.730469 210.109375 232.082031 C 210.109375 257.429688 189.527344 278.011719 164.175781 278.011719 C 138.828125 278.011719 118.246094 257.429688 118.246094 232.082031 C 118.246094 206.730469 138.828125 186.152344 164.175781 186.152344 Z M 164.175781 188.5 C 140.125 188.5 120.59375 208.027344 120.59375 232.082031 C 120.59375 256.132812 140.125 275.664062 164.175781 275.664062 C 188.230469 275.664062 207.757812 256.132812 207.757812 232.082031 C 207.757812 208.027344 188.230469 188.5 164.175781 188.5 Z M 164.175781 204.175781 C 179.578125 204.175781 192.082031 216.679688 192.082031 232.082031 C 192.082031 247.480469 179.578125 259.984375 164.175781 259.984375 C 148.777344 259.984375 136.273438 247.480469 136.273438 232.082031 C 136.273438 216.679688 148.777344 204.175781 164.175781 204.175781 Z M 164.175781 206.527344 C 150.074219 206.527344 138.621094 217.976562 138.621094 232.082031 C 138.621094 246.183594 150.074219 257.636719 164.175781 257.636719 C 178.28125 257.636719 189.734375 246.183594 189.734375 232.082031 C 189.734375 217.976562 178.28125 206.527344 164.175781 206.527344 Z M 164.175781 219.726562 C 170.996094 219.726562 176.53125 225.261719 176.53125 232.082031 C 176.53125 238.898438 170.996094 244.4375 164.175781 244.4375 C 157.359375 244.4375 151.820312 238.898438 151.820312 232.082031 C 151.820312 225.261719 157.359375 219.726562 164.175781 219.726562 Z M 164.175781 222.074219 C 158.65625 222.074219 154.171875 226.558594 154.171875 232.082031 C 154.171875 237.601562 158.65625 242.085938 164.175781 242.085938 C 169.699219 242.085938 174.183594 237.601562 174.183594 232.082031 C 174.183594 226.558594 169.699219 222.074219 164.175781 222.074219 Z M 164.175781 222.074219 " fill-opacity="1" fill-rule="evenodd"/><path fill="#cc3333" d="M 176.894531 172.238281 C 206.859375 177.148438 229.753906 203.1875 229.753906 234.53125 C 229.753906 269.371094 201.46875 297.65625 166.628906 297.65625 C 135.28125 297.65625 109.242188 274.761719 104.335938 244.796875 C 110.191406 272.460938 134.777344 293.25 164.175781 293.25 C 197.9375 293.25 225.347656 265.839844 225.347656 232.082031 C 225.347656 202.679688 204.558594 178.097656 176.894531 172.238281 Z M 174.066406 187.21875 C 196.96875 190.796875 214.515625 210.632812 214.515625 234.53125 C 214.515625 260.960938 193.058594 282.417969 166.628906 282.417969 C 142.726562 282.417969 122.894531 264.875 119.316406 241.972656 C 123.84375 262.574219 142.222656 278.011719 164.175781 278.011719 C 189.527344 278.011719 210.109375 257.429688 210.109375 232.082031 C 210.109375 210.125 194.671875 191.75 174.066406 187.21875 Z M 170.71875 204.949219 C 185.265625 206.945312 196.488281 219.4375 196.488281 234.53125 C 196.488281 251.011719 183.109375 264.394531 166.628906 264.394531 C 151.535156 264.394531 139.042969 253.171875 137.042969 238.621094 C 139.992188 250.871094 151.027344 259.984375 164.175781 259.984375 C 179.578125 259.984375 192.082031 247.480469 192.082031 232.082031 C 192.082031 218.933594 182.96875 207.894531 170.71875 204.949219 Z M 167.804688 220.269531 C 175.152344 220.867188 180.941406 227.027344 180.941406 234.53125 C 180.941406 242.429688 174.527344 248.84375 166.628906 248.84375 C 159.125 248.84375 152.960938 243.058594 152.363281 235.707031 C 153.914062 240.757812 158.621094 244.4375 164.175781 244.4375 C 170.996094 244.4375 176.53125 238.898438 176.53125 232.082031 C 176.53125 226.523438 172.855469 221.820312 167.804688 220.269531 Z M 167.804688 220.269531 " fill-opacity="1" fill-rule="evenodd"/><path fill="#ffde59" d="M 195.9375 184.210938 C 187.324219 179.183594 177.3125 176.300781 166.628906 176.300781 C 134.488281 176.300781 108.394531 202.394531 108.394531 234.53125 C 108.394531 245.214844 111.277344 255.230469 116.308594 263.839844 C 110.253906 254.742188 106.726562 243.820312 106.726562 232.082031 C 106.726562 200.375 132.46875 174.632812 164.175781 174.632812 C 175.914062 174.632812 186.835938 178.160156 195.9375 184.210938 Z M 187.882812 197.15625 C 181.609375 193.582031 174.355469 191.539062 166.628906 191.539062 C 142.898438 191.539062 123.632812 210.804688 123.632812 234.53125 C 123.632812 242.261719 125.675781 249.515625 129.253906 255.785156 C 124.652344 249.027344 121.964844 240.863281 121.964844 232.082031 C 121.964844 208.785156 140.878906 189.871094 164.175781 189.871094 C 172.960938 189.871094 181.121094 192.558594 187.882812 197.15625 Z M 178.34375 212.480469 C 174.847656 210.617188 170.859375 209.5625 166.628906 209.5625 C 152.847656 209.5625 141.660156 220.75 141.660156 234.53125 C 141.660156 238.765625 142.714844 242.753906 144.578125 246.246094 C 141.691406 242.265625 139.992188 237.371094 139.992188 232.082031 C 139.992188 218.734375 150.828125 207.894531 164.175781 207.894531 C 169.464844 207.894531 174.359375 209.597656 178.34375 212.480469 Z M 170.058594 225.757812 C 168.992188 225.339844 167.835938 225.113281 166.628906 225.113281 C 161.429688 225.113281 157.210938 229.332031 157.210938 234.53125 C 157.210938 235.742188 157.4375 236.898438 157.855469 237.960938 C 156.417969 236.417969 155.539062 234.351562 155.539062 232.082031 C 155.539062 227.316406 159.410156 223.445312 164.175781 223.445312 C 166.449219 223.445312 168.515625 224.324219 170.058594 225.757812 Z M 113.289062 181.976562 C 122.023438 173.242188 130.058594 168.941406 133.644531 167.882812 C 139.664062 166.105469 126.6875 170.992188 115.203125 183.105469 C 101.507812 197.554688 97.125 208.574219 99.980469 200.765625 C 101.214844 197.386719 108.421875 186.84375 113.289062 181.976562 Z M 113.289062 181.976562 " fill-opacity="1" fill-rule="evenodd"/><g clip-path="url(#1d57078072)"><g clip-path="url(#19532472b7)"><g clip-path="url(#4ca64461b8)"><g clip-path="url(#a47277bcfb)"><path fill="#000000" d="M 229.761719 183.691406 C 228.957031 183.628906 228.152344 183.5625 227.355469 183.484375 C 227.980469 182.269531 228.480469 181.308594 228.875 180.535156 C 252.617188 136.316406 276.0625 117.574219 276.0625 117.574219 C 261.894531 90.558594 214.359375 66 184.027344 70.160156 C 184.027344 70.160156 182.375 100.128906 160.144531 145.144531 C 159.769531 145.871094 159.292969 146.796875 158.710938 147.925781 C 158.292969 147.449219 157.882812 146.957031 157.460938 146.460938 C 124.660156 107.214844 129.472656 171.582031 177.515625 196.332031 C 225.269531 220.933594 279.84375 187.566406 229.761719 183.691406 Z M 229.761719 183.691406 " fill-opacity="1" fill-rule="nonzero"/></g></g></g></g></svg>